G75*
%MOIN*%
%OFA0B0*%
%FSLAX25Y25*%
%IPPOS*%
%LPD*%
%AMOC8*
5,1,8,0,0,1.08239X$1,22.5*
%
%ADD10C,0.00600*%
%ADD11C,0.00400*%
%ADD12C,0.00500*%
D10*
X0068576Y0142948D02*
X0068576Y0144015D01*
X0064306Y0148286D01*
X0064306Y0149353D01*
X0068576Y0149353D01*
X0069650Y0153448D02*
X0065380Y0159853D01*
X0069650Y0159853D02*
X0065380Y0153448D01*
X0071825Y0154515D02*
X0071825Y0159853D01*
X0076096Y0159853D02*
X0076096Y0154515D01*
X0075028Y0153448D01*
X0072893Y0153448D01*
X0071825Y0154515D01*
X0072886Y0149353D02*
X0072886Y0142948D01*
X0075021Y0142948D02*
X0070751Y0142948D01*
X0075021Y0147218D02*
X0072886Y0149353D01*
X0077197Y0148286D02*
X0077197Y0144015D01*
X0078264Y0142948D01*
X0080399Y0142948D01*
X0081467Y0144015D01*
X0077197Y0148286D01*
X0078264Y0149353D01*
X0080399Y0149353D01*
X0081467Y0148286D01*
X0081467Y0144015D01*
X0083642Y0142948D02*
X0087912Y0142948D01*
X0083642Y0147218D01*
X0083642Y0148286D01*
X0084710Y0149353D01*
X0086845Y0149353D01*
X0087912Y0148286D01*
X0091162Y0153448D02*
X0091162Y0157718D01*
X0093297Y0159853D01*
X0095432Y0157718D01*
X0095432Y0153448D01*
X0097607Y0153448D02*
X0099743Y0155583D01*
X0098675Y0155583D02*
X0101878Y0155583D01*
X0101878Y0153448D02*
X0101878Y0159853D01*
X0098675Y0159853D01*
X0097607Y0158786D01*
X0097607Y0156650D01*
X0098675Y0155583D01*
X0095432Y0156650D02*
X0091162Y0156650D01*
X0096526Y0147218D02*
X0099729Y0145083D01*
X0096526Y0142948D01*
X0099729Y0142948D02*
X0099729Y0149353D01*
X0101904Y0146150D02*
X0102972Y0147218D01*
X0105107Y0147218D01*
X0106175Y0146150D01*
X0106175Y0144015D01*
X0105107Y0142948D01*
X0102972Y0142948D01*
X0101904Y0144015D01*
X0101904Y0146150D01*
X0108350Y0146150D02*
X0108350Y0144015D01*
X0109417Y0142948D01*
X0111553Y0142948D01*
X0112620Y0144015D01*
X0112620Y0146150D01*
X0111553Y0147218D01*
X0109417Y0147218D01*
X0108350Y0146150D01*
X0114795Y0145083D02*
X0114795Y0144015D01*
X0115863Y0142948D01*
X0119066Y0142948D01*
X0119066Y0149353D01*
X0115863Y0149353D01*
X0114795Y0148286D01*
X0114795Y0147218D01*
X0115863Y0146150D01*
X0119066Y0146150D01*
X0121241Y0146150D02*
X0121241Y0142948D01*
X0121241Y0146150D02*
X0122308Y0147218D01*
X0125511Y0147218D01*
X0125511Y0142948D01*
X0127686Y0142948D02*
X0127686Y0146150D01*
X0128754Y0147218D01*
X0130889Y0147218D01*
X0130889Y0145083D02*
X0127686Y0145083D01*
X0127686Y0142948D02*
X0130889Y0142948D01*
X0131957Y0144015D01*
X0130889Y0145083D01*
X0134132Y0147218D02*
X0137335Y0147218D01*
X0138402Y0146150D01*
X0138402Y0144015D01*
X0137335Y0142948D01*
X0134132Y0142948D01*
X0140577Y0144015D02*
X0141645Y0142948D01*
X0143780Y0142948D01*
X0144848Y0144015D01*
X0143780Y0146150D02*
X0141645Y0146150D01*
X0140577Y0145083D01*
X0140577Y0144015D01*
X0143780Y0146150D02*
X0144848Y0147218D01*
X0144848Y0148286D01*
X0143780Y0149353D01*
X0141645Y0149353D01*
X0140577Y0148286D01*
X0138402Y0153448D02*
X0136267Y0153448D01*
X0137335Y0153448D02*
X0137335Y0159853D01*
X0138402Y0159853D02*
X0136267Y0159853D01*
X0140577Y0158786D02*
X0140577Y0156650D01*
X0141645Y0155583D01*
X0144848Y0155583D01*
X0144848Y0153448D02*
X0144848Y0159853D01*
X0141645Y0159853D01*
X0140577Y0158786D01*
X0127660Y0158786D02*
X0127660Y0154515D01*
X0126592Y0153448D01*
X0124457Y0153448D01*
X0123389Y0154515D01*
X0121214Y0153448D02*
X0121214Y0157718D01*
X0119079Y0159853D01*
X0116944Y0157718D01*
X0116944Y0153448D01*
X0114769Y0153448D02*
X0114769Y0159853D01*
X0112634Y0157718D01*
X0110498Y0159853D01*
X0110498Y0153448D01*
X0108323Y0153448D02*
X0104053Y0153448D01*
X0106188Y0156650D02*
X0108323Y0156650D01*
X0108323Y0153448D02*
X0108323Y0159853D01*
X0104053Y0159853D01*
X0116944Y0156650D02*
X0121214Y0156650D01*
X0123389Y0158786D02*
X0124457Y0159853D01*
X0126592Y0159853D01*
X0127660Y0158786D01*
X0115863Y0146150D02*
X0114795Y0145083D01*
X0082541Y0153448D02*
X0082541Y0159853D01*
X0080406Y0157718D01*
X0078271Y0159853D01*
X0078271Y0153448D01*
D11*
X0121643Y0029469D02*
X0121643Y0028702D01*
X0121643Y0027167D02*
X0121643Y0024098D01*
X0120876Y0024098D02*
X0122411Y0024098D01*
X0123945Y0024098D02*
X0124713Y0024865D01*
X0124713Y0027934D01*
X0125480Y0027167D02*
X0123945Y0027167D01*
X0122411Y0027167D02*
X0121643Y0027167D01*
X0119341Y0026400D02*
X0119341Y0024865D01*
X0118574Y0024098D01*
X0117039Y0024098D01*
X0116272Y0025632D02*
X0119341Y0025632D01*
X0119341Y0026400D02*
X0118574Y0027167D01*
X0117039Y0027167D01*
X0116272Y0026400D01*
X0116272Y0025632D01*
X0114737Y0027167D02*
X0113203Y0024098D01*
X0111668Y0027167D01*
X0110134Y0026400D02*
X0110134Y0024865D01*
X0109366Y0024098D01*
X0107832Y0024098D01*
X0107064Y0025632D02*
X0110134Y0025632D01*
X0110134Y0026400D02*
X0109366Y0027167D01*
X0107832Y0027167D01*
X0107064Y0026400D01*
X0107064Y0025632D01*
X0105530Y0024098D02*
X0105530Y0027167D01*
X0103228Y0027167D01*
X0102460Y0026400D01*
X0102460Y0024098D01*
X0100926Y0024865D02*
X0100158Y0025632D01*
X0097856Y0025632D01*
X0097856Y0026400D02*
X0097856Y0024098D01*
X0100158Y0024098D01*
X0100926Y0024865D01*
X0100158Y0027167D02*
X0098624Y0027167D01*
X0097856Y0026400D01*
X0096322Y0027167D02*
X0096322Y0024098D01*
X0096322Y0025632D02*
X0094787Y0027167D01*
X0094020Y0027167D01*
X0092485Y0027167D02*
X0090951Y0027167D01*
X0091718Y0027934D02*
X0091718Y0024865D01*
X0090951Y0024098D01*
X0103228Y0012167D02*
X0102460Y0011400D01*
X0102460Y0009098D01*
X0104762Y0009098D01*
X0105530Y0009865D01*
X0104762Y0010632D01*
X0102460Y0010632D01*
X0103228Y0012167D02*
X0104762Y0012167D01*
X0107832Y0013702D02*
X0107832Y0009098D01*
X0108599Y0009098D02*
X0107064Y0009098D01*
X0110134Y0009098D02*
X0111668Y0009098D01*
X0110901Y0009098D02*
X0110901Y0013702D01*
X0111668Y0013702D01*
X0113970Y0012167D02*
X0113203Y0011400D01*
X0113203Y0010632D01*
X0116272Y0010632D01*
X0116272Y0009865D02*
X0116272Y0011400D01*
X0115505Y0012167D01*
X0113970Y0012167D01*
X0113970Y0009098D02*
X0115505Y0009098D01*
X0116272Y0009865D01*
X0117807Y0009098D02*
X0120876Y0009098D01*
X0117807Y0012167D01*
X0120876Y0012167D01*
X0122411Y0011400D02*
X0122411Y0009098D01*
X0122411Y0011400D02*
X0123178Y0012167D01*
X0125480Y0012167D01*
X0125480Y0009098D01*
X0127015Y0009098D02*
X0127015Y0011400D01*
X0127782Y0012167D01*
X0129317Y0012167D01*
X0129317Y0010632D02*
X0127015Y0010632D01*
X0127015Y0009098D02*
X0129317Y0009098D01*
X0130084Y0009865D01*
X0129317Y0010632D01*
X0131619Y0009098D02*
X0131619Y0013702D01*
X0133153Y0012167D01*
X0134688Y0013702D01*
X0134688Y0009098D01*
X0140826Y0009098D02*
X0141594Y0009098D01*
X0141594Y0009865D01*
X0140826Y0009865D01*
X0140826Y0009098D01*
X0143128Y0009098D02*
X0143128Y0013702D01*
X0144663Y0012167D01*
X0146198Y0013702D01*
X0146198Y0009098D01*
X0144663Y0016598D02*
X0144663Y0021202D01*
X0146198Y0021202D02*
X0143128Y0021202D01*
X0143128Y0024098D02*
X0143128Y0028702D01*
X0144663Y0025632D02*
X0143128Y0024098D01*
X0141594Y0024098D02*
X0140826Y0024098D01*
X0140826Y0024865D01*
X0141594Y0024865D01*
X0141594Y0024098D01*
X0144663Y0025632D02*
X0146198Y0024098D01*
X0146198Y0028702D01*
X0141594Y0017365D02*
X0140826Y0017365D01*
X0140826Y0016598D01*
X0141594Y0016598D01*
X0141594Y0017365D01*
X0134688Y0016598D02*
X0134688Y0021202D01*
X0134688Y0018900D02*
X0131619Y0018900D01*
X0130084Y0018900D02*
X0130084Y0017365D01*
X0129317Y0016598D01*
X0127782Y0016598D01*
X0127015Y0018132D02*
X0130084Y0018132D01*
X0130084Y0018900D02*
X0129317Y0019667D01*
X0127782Y0019667D01*
X0127015Y0018900D01*
X0127015Y0018132D01*
X0125480Y0018132D02*
X0123945Y0019667D01*
X0123178Y0019667D01*
X0125480Y0019667D02*
X0125480Y0016598D01*
X0121643Y0016598D02*
X0119341Y0016598D01*
X0118574Y0017365D01*
X0118574Y0018900D01*
X0119341Y0019667D01*
X0121643Y0019667D01*
X0121643Y0015063D01*
X0117039Y0017365D02*
X0117039Y0018900D01*
X0116272Y0019667D01*
X0114737Y0019667D01*
X0113970Y0018900D01*
X0113970Y0017365D01*
X0114737Y0016598D01*
X0116272Y0016598D01*
X0117039Y0017365D01*
X0112436Y0017365D02*
X0111668Y0016598D01*
X0110134Y0016598D01*
X0109366Y0018132D02*
X0112436Y0018132D01*
X0112436Y0017365D02*
X0112436Y0018900D01*
X0111668Y0019667D01*
X0110134Y0019667D01*
X0109366Y0018900D01*
X0109366Y0018132D01*
X0107832Y0016598D02*
X0106297Y0016598D01*
X0107064Y0016598D02*
X0107064Y0021202D01*
X0107832Y0021202D01*
X0107832Y0013702D02*
X0108599Y0013702D01*
X0127015Y0024865D02*
X0127782Y0025632D01*
X0129317Y0025632D01*
X0130084Y0026400D01*
X0129317Y0027167D01*
X0127015Y0027167D01*
X0127015Y0024865D02*
X0127782Y0024098D01*
X0130084Y0024098D01*
X0131619Y0024098D02*
X0134688Y0024098D01*
X0134688Y0028702D01*
X0131619Y0028702D01*
X0133153Y0026400D02*
X0134688Y0026400D01*
X0131619Y0021202D02*
X0131619Y0016598D01*
D12*
X0023297Y0045778D02*
X0001250Y0045778D01*
X0001250Y0124518D01*
X0023297Y0124518D01*
X0023297Y0045778D01*
M02*
