%
M48
M72
T01C0.0130
T02C0.0240
T03C0.1102
%
T01
X4515Y4515
X6265Y4515
X7023Y4131
X7256Y3898
X7890Y5890
X7381Y6506
X7148Y6273
X6015Y7515
X5390Y6515
X4282Y7358
X4282Y7688
X3535Y7715
X3535Y7355
X3613Y8539
X3613Y8869
X5390Y9640
X6515Y10890
X6765Y9015
X7515Y8265
X8890Y7515
X9515Y7515
X9890Y7390
X9890Y7890
X10890Y9890
X12265Y11265
X12015Y11515
X11765Y11765
X11515Y12015
X10390Y12890
X11140Y13390
X8756Y12148
X8523Y12381
X8135Y12825
X7765Y13515
X7390Y13515
X7015Y13515
X6640Y13515
X6265Y13015
X8653Y13507
X13515Y10140
X12265Y7390
X12265Y5890
X10640Y3765
X10140Y3765
T02
X3265Y12015
T03
X1765Y1515
X13765Y12515
X1765Y15515
M30
