G75*
%MOIN*%
%OFA0B0*%
%FSLAX25Y25*%
%IPPOS*%
%LPD*%
%AMOC8*
5,1,8,0,0,1.08239X$1,22.5*
%
%ADD10R,0.07480X0.02362*%
%ADD11C,0.00500*%
%ADD12R,0.02500X0.05000*%
%ADD13C,0.00600*%
%ADD14C,0.02700*%
%ADD15C,0.02400*%
%ADD16C,0.03800*%
%ADD17C,0.00800*%
D10*
X0029400Y0057589D03*
X0029400Y0061526D03*
X0029400Y0065463D03*
X0029400Y0069400D03*
X0029400Y0073337D03*
X0029400Y0077274D03*
X0029400Y0081211D03*
X0029400Y0085148D03*
X0029400Y0089085D03*
X0029400Y0093022D03*
X0029400Y0096959D03*
X0029400Y0100896D03*
X0029400Y0104833D03*
X0029400Y0108770D03*
X0029400Y0112707D03*
D11*
X0021722Y0112826D02*
X0014636Y0112826D01*
X0014636Y0112328D02*
X0021722Y0112328D01*
X0021722Y0111829D02*
X0014636Y0111829D01*
X0014636Y0111331D02*
X0021722Y0111331D01*
X0021722Y0110832D02*
X0014636Y0110832D01*
X0014636Y0110334D02*
X0021722Y0110334D01*
X0021722Y0109835D02*
X0014636Y0109835D01*
X0014636Y0109337D02*
X0021722Y0109337D01*
X0021722Y0108838D02*
X0014636Y0108838D01*
X0014636Y0108339D02*
X0021722Y0108339D01*
X0021722Y0107841D02*
X0014636Y0107841D01*
X0014636Y0107342D02*
X0021722Y0107342D01*
X0021722Y0106844D02*
X0014636Y0106844D01*
X0014636Y0106345D02*
X0021722Y0106345D01*
X0021722Y0105847D02*
X0014636Y0105847D01*
X0014636Y0105348D02*
X0021722Y0105348D01*
X0021722Y0104850D02*
X0014636Y0104850D01*
X0014636Y0104351D02*
X0021722Y0104351D01*
X0021722Y0103853D02*
X0014636Y0103853D01*
X0014636Y0103354D02*
X0021722Y0103354D01*
X0021722Y0102856D02*
X0014636Y0102856D01*
X0014636Y0102357D02*
X0021722Y0102357D01*
X0021722Y0101859D02*
X0014636Y0101859D01*
X0014636Y0101360D02*
X0021722Y0101360D01*
X0021722Y0100862D02*
X0014636Y0100862D01*
X0014636Y0100363D02*
X0021722Y0100363D01*
X0021722Y0099865D02*
X0014636Y0099865D01*
X0014636Y0099366D02*
X0021722Y0099366D01*
X0021722Y0098868D02*
X0014636Y0098868D01*
X0014636Y0098369D02*
X0021722Y0098369D01*
X0021722Y0097871D02*
X0014636Y0097871D01*
X0014636Y0097372D02*
X0021722Y0097372D01*
X0021722Y0096874D02*
X0014636Y0096874D01*
X0014636Y0096375D02*
X0021722Y0096375D01*
X0021722Y0095877D02*
X0014636Y0095877D01*
X0014636Y0095378D02*
X0021722Y0095378D01*
X0021722Y0094880D02*
X0014636Y0094880D01*
X0014636Y0094381D02*
X0021722Y0094381D01*
X0021722Y0093883D02*
X0014636Y0093883D01*
X0014636Y0093384D02*
X0021722Y0093384D01*
X0021722Y0092886D02*
X0014636Y0092886D01*
X0014636Y0092387D02*
X0021722Y0092387D01*
X0021722Y0091889D02*
X0014636Y0091889D01*
X0014636Y0091390D02*
X0021722Y0091390D01*
X0021722Y0090892D02*
X0014636Y0090892D01*
X0014636Y0090393D02*
X0021722Y0090393D01*
X0021722Y0089895D02*
X0014636Y0089895D01*
X0014636Y0089396D02*
X0021722Y0089396D01*
X0021722Y0088898D02*
X0014636Y0088898D01*
X0014636Y0088399D02*
X0021722Y0088399D01*
X0021722Y0087901D02*
X0014636Y0087901D01*
X0014636Y0087402D02*
X0021722Y0087402D01*
X0021722Y0086903D02*
X0014636Y0086903D01*
X0014636Y0086405D02*
X0021722Y0086405D01*
X0021722Y0085906D02*
X0014636Y0085906D01*
X0014636Y0085408D02*
X0021722Y0085408D01*
X0021722Y0084909D02*
X0014636Y0084909D01*
X0014636Y0084411D02*
X0021722Y0084411D01*
X0021722Y0083912D02*
X0014636Y0083912D01*
X0014636Y0083414D02*
X0021722Y0083414D01*
X0021722Y0082915D02*
X0014636Y0082915D01*
X0014636Y0082417D02*
X0021722Y0082417D01*
X0021722Y0081918D02*
X0014636Y0081918D01*
X0014636Y0081420D02*
X0021722Y0081420D01*
X0021722Y0080921D02*
X0014636Y0080921D01*
X0014636Y0080423D02*
X0021722Y0080423D01*
X0021722Y0079924D02*
X0014636Y0079924D01*
X0014636Y0079426D02*
X0021722Y0079426D01*
X0021722Y0078927D02*
X0014636Y0078927D01*
X0014636Y0078429D02*
X0021722Y0078429D01*
X0021722Y0077930D02*
X0014636Y0077930D01*
X0014636Y0077432D02*
X0021722Y0077432D01*
X0021722Y0076933D02*
X0014636Y0076933D01*
X0014636Y0076435D02*
X0021722Y0076435D01*
X0021722Y0075936D02*
X0014636Y0075936D01*
X0014636Y0075438D02*
X0021722Y0075438D01*
X0021722Y0074939D02*
X0014636Y0074939D01*
X0014636Y0074441D02*
X0021722Y0074441D01*
X0021722Y0073942D02*
X0014636Y0073942D01*
X0014636Y0073444D02*
X0021722Y0073444D01*
X0021722Y0072945D02*
X0014636Y0072945D01*
X0014636Y0072447D02*
X0021722Y0072447D01*
X0021722Y0071948D02*
X0014636Y0071948D01*
X0014636Y0071450D02*
X0021722Y0071450D01*
X0021722Y0070951D02*
X0014636Y0070951D01*
X0014636Y0070453D02*
X0021722Y0070453D01*
X0021722Y0069954D02*
X0014636Y0069954D01*
X0014636Y0069456D02*
X0021722Y0069456D01*
X0021722Y0068957D02*
X0014636Y0068957D01*
X0014636Y0068459D02*
X0021722Y0068459D01*
X0021722Y0067960D02*
X0014636Y0067960D01*
X0014636Y0067462D02*
X0021722Y0067462D01*
X0021722Y0066963D02*
X0014636Y0066963D01*
X0014636Y0066465D02*
X0021722Y0066465D01*
X0021722Y0065966D02*
X0014636Y0065966D01*
X0014636Y0065468D02*
X0021722Y0065468D01*
X0021722Y0064969D02*
X0014636Y0064969D01*
X0014636Y0064470D02*
X0021722Y0064470D01*
X0021722Y0063972D02*
X0014636Y0063972D01*
X0014636Y0063473D02*
X0021722Y0063473D01*
X0021722Y0062975D02*
X0014636Y0062975D01*
X0014636Y0062476D02*
X0021722Y0062476D01*
X0021722Y0061978D02*
X0014636Y0061978D01*
X0014636Y0061479D02*
X0021722Y0061479D01*
X0021722Y0060981D02*
X0014636Y0060981D01*
X0014636Y0060482D02*
X0021722Y0060482D01*
X0021722Y0059984D02*
X0014636Y0059984D01*
X0014636Y0059485D02*
X0021722Y0059485D01*
X0021722Y0058987D02*
X0014636Y0058987D01*
X0014636Y0058488D02*
X0021722Y0058488D01*
X0021722Y0057990D02*
X0014636Y0057990D01*
X0014636Y0057491D02*
X0021722Y0057491D01*
X0021722Y0056993D02*
X0014636Y0056993D01*
X0014636Y0056494D02*
X0021722Y0056494D01*
X0021722Y0055996D02*
X0014636Y0055996D01*
X0014636Y0055497D02*
X0021722Y0055497D01*
X0021722Y0054999D02*
X0014636Y0054999D01*
X0014636Y0054500D02*
X0021722Y0054500D01*
X0021722Y0054002D02*
X0014636Y0054002D01*
X0014636Y0053503D02*
X0021722Y0053503D01*
X0021722Y0053005D02*
X0014636Y0053005D01*
X0014636Y0052506D02*
X0021722Y0052506D01*
X0021722Y0052008D02*
X0014636Y0052008D01*
X0014636Y0051509D02*
X0021722Y0051509D01*
X0021722Y0051011D02*
X0014636Y0051011D01*
X0014636Y0050512D02*
X0021722Y0050512D01*
X0021722Y0050014D02*
X0014636Y0050014D01*
X0014636Y0049515D02*
X0021722Y0049515D01*
X0021722Y0049321D02*
X0021722Y0120974D01*
X0025659Y0120974D01*
X0025659Y0129242D01*
X0014636Y0129242D01*
X0014636Y0041053D01*
X0025659Y0041053D01*
X0025659Y0049321D01*
X0021722Y0049321D01*
X0025659Y0049017D02*
X0014636Y0049017D01*
X0014636Y0048518D02*
X0025659Y0048518D01*
X0025659Y0048020D02*
X0014636Y0048020D01*
X0014636Y0047521D02*
X0025659Y0047521D01*
X0025659Y0047023D02*
X0014636Y0047023D01*
X0014636Y0046524D02*
X0025659Y0046524D01*
X0025659Y0046026D02*
X0014636Y0046026D01*
X0014636Y0045527D02*
X0025659Y0045527D01*
X0025659Y0045029D02*
X0014636Y0045029D01*
X0014636Y0044530D02*
X0025659Y0044530D01*
X0025659Y0044032D02*
X0014636Y0044032D01*
X0014636Y0043533D02*
X0025659Y0043533D01*
X0025659Y0043034D02*
X0014636Y0043034D01*
X0014636Y0042536D02*
X0025659Y0042536D01*
X0025659Y0042037D02*
X0014636Y0042037D01*
X0014636Y0041539D02*
X0025659Y0041539D01*
X0021722Y0113325D02*
X0014636Y0113325D01*
X0014636Y0113823D02*
X0021722Y0113823D01*
X0021722Y0114322D02*
X0014636Y0114322D01*
X0014636Y0114820D02*
X0021722Y0114820D01*
X0021722Y0115319D02*
X0014636Y0115319D01*
X0014636Y0115817D02*
X0021722Y0115817D01*
X0021722Y0116316D02*
X0014636Y0116316D01*
X0014636Y0116814D02*
X0021722Y0116814D01*
X0021722Y0117313D02*
X0014636Y0117313D01*
X0014636Y0117811D02*
X0021722Y0117811D01*
X0021722Y0118310D02*
X0014636Y0118310D01*
X0014636Y0118808D02*
X0021722Y0118808D01*
X0021722Y0119307D02*
X0014636Y0119307D01*
X0014636Y0119805D02*
X0021722Y0119805D01*
X0021722Y0120304D02*
X0014636Y0120304D01*
X0014636Y0120802D02*
X0021722Y0120802D01*
X0025659Y0121301D02*
X0014636Y0121301D01*
X0014636Y0121799D02*
X0025659Y0121799D01*
X0025659Y0122298D02*
X0014636Y0122298D01*
X0014636Y0122796D02*
X0025659Y0122796D01*
X0025659Y0123295D02*
X0014636Y0123295D01*
X0014636Y0123793D02*
X0025659Y0123793D01*
X0025659Y0124292D02*
X0014636Y0124292D01*
X0014636Y0124790D02*
X0025659Y0124790D01*
X0025659Y0125289D02*
X0014636Y0125289D01*
X0014636Y0125787D02*
X0025659Y0125787D01*
X0025659Y0126286D02*
X0014636Y0126286D01*
X0014636Y0126784D02*
X0025659Y0126784D01*
X0025659Y0127283D02*
X0014636Y0127283D01*
X0014636Y0127781D02*
X0025659Y0127781D01*
X0025659Y0128280D02*
X0014636Y0128280D01*
X0014636Y0128778D02*
X0025659Y0128778D01*
D12*
X0020148Y0085148D03*
D13*
X0011948Y0010507D02*
X0011948Y0006948D01*
X0147098Y0006948D01*
X0147098Y0163348D01*
X0011948Y0163348D01*
X0011948Y0159788D01*
X0013506Y0161346D01*
X0016193Y0162459D01*
X0019102Y0162459D01*
X0021789Y0161346D01*
X0023846Y0159289D01*
X0024959Y0156602D01*
X0024959Y0153693D01*
X0023846Y0151006D01*
X0021789Y0148949D01*
X0019102Y0147836D01*
X0016193Y0147836D01*
X0013506Y0148949D01*
X0011948Y0150507D01*
X0011948Y0019788D01*
X0013506Y0021346D01*
X0016193Y0022459D01*
X0019102Y0022459D01*
X0021789Y0021346D01*
X0023846Y0019289D01*
X0024959Y0016602D01*
X0024959Y0013693D01*
X0023846Y0011006D01*
X0021789Y0008949D01*
X0019102Y0007836D01*
X0016193Y0007836D01*
X0013506Y0008949D01*
X0011948Y0010507D01*
X0011948Y0009936D02*
X0012519Y0009936D01*
X0011948Y0009337D02*
X0013118Y0009337D01*
X0014013Y0008739D02*
X0011948Y0008739D01*
X0011948Y0008140D02*
X0015458Y0008140D01*
X0011948Y0007542D02*
X0147098Y0007542D01*
X0147098Y0008140D02*
X0019837Y0008140D01*
X0021282Y0008739D02*
X0147098Y0008739D01*
X0147098Y0009337D02*
X0022178Y0009337D01*
X0022776Y0009936D02*
X0147098Y0009936D01*
X0147098Y0010534D02*
X0023375Y0010534D01*
X0023899Y0011133D02*
X0147098Y0011133D01*
X0147098Y0011731D02*
X0024147Y0011731D01*
X0024395Y0012330D02*
X0147098Y0012330D01*
X0147098Y0012928D02*
X0024643Y0012928D01*
X0024890Y0013527D02*
X0147098Y0013527D01*
X0147098Y0014125D02*
X0024959Y0014125D01*
X0024959Y0014724D02*
X0147098Y0014724D01*
X0147098Y0015322D02*
X0024959Y0015322D01*
X0024959Y0015921D02*
X0147098Y0015921D01*
X0147098Y0016519D02*
X0024959Y0016519D01*
X0024746Y0017118D02*
X0147098Y0017118D01*
X0147098Y0017716D02*
X0024498Y0017716D01*
X0024250Y0018315D02*
X0147098Y0018315D01*
X0147098Y0018913D02*
X0024002Y0018913D01*
X0023624Y0019512D02*
X0147098Y0019512D01*
X0147098Y0020110D02*
X0023025Y0020110D01*
X0022427Y0020709D02*
X0147098Y0020709D01*
X0147098Y0021307D02*
X0021828Y0021307D01*
X0020438Y0021906D02*
X0147098Y0021906D01*
X0147098Y0022504D02*
X0011948Y0022504D01*
X0011948Y0021906D02*
X0014857Y0021906D01*
X0013467Y0021307D02*
X0011948Y0021307D01*
X0011948Y0020709D02*
X0012868Y0020709D01*
X0012270Y0020110D02*
X0011948Y0020110D01*
X0011948Y0023103D02*
X0147098Y0023103D01*
X0147098Y0023701D02*
X0011948Y0023701D01*
X0011948Y0024300D02*
X0147098Y0024300D01*
X0147098Y0024899D02*
X0011948Y0024899D01*
X0011948Y0025497D02*
X0147098Y0025497D01*
X0147098Y0026096D02*
X0011948Y0026096D01*
X0011948Y0026694D02*
X0147098Y0026694D01*
X0147098Y0027293D02*
X0011948Y0027293D01*
X0011948Y0027891D02*
X0147098Y0027891D01*
X0147098Y0028490D02*
X0011948Y0028490D01*
X0011948Y0029088D02*
X0147098Y0029088D01*
X0147098Y0029687D02*
X0011948Y0029687D01*
X0011948Y0030285D02*
X0147098Y0030285D01*
X0147098Y0030884D02*
X0011948Y0030884D01*
X0011948Y0031482D02*
X0147098Y0031482D01*
X0147098Y0032081D02*
X0011948Y0032081D01*
X0011948Y0032679D02*
X0147098Y0032679D01*
X0147098Y0033278D02*
X0011948Y0033278D01*
X0011948Y0033876D02*
X0147098Y0033876D01*
X0147098Y0034475D02*
X0011948Y0034475D01*
X0011948Y0035073D02*
X0147098Y0035073D01*
X0147098Y0035672D02*
X0107604Y0035672D01*
X0107330Y0035398D02*
X0108648Y0036716D01*
X0108648Y0038580D01*
X0107330Y0039898D01*
X0107236Y0039898D01*
X0098948Y0048186D01*
X0098948Y0071648D01*
X0099830Y0071648D01*
X0101148Y0072966D01*
X0101148Y0074830D01*
X0099830Y0076148D01*
X0097966Y0076148D01*
X0097398Y0075580D01*
X0097398Y0076080D01*
X0096080Y0077398D01*
X0094216Y0077398D01*
X0092898Y0076080D01*
X0092898Y0074216D01*
X0093848Y0073266D01*
X0093848Y0043359D01*
X0099148Y0038059D01*
X0099148Y0036716D01*
X0100466Y0035398D01*
X0102330Y0035398D01*
X0103648Y0036716D01*
X0103648Y0038580D01*
X0102330Y0039898D01*
X0100986Y0039898D01*
X0096448Y0044436D01*
X0096448Y0047009D01*
X0097109Y0046348D01*
X0104512Y0038944D01*
X0104148Y0038580D01*
X0104148Y0036716D01*
X0105466Y0035398D01*
X0107330Y0035398D01*
X0108202Y0036270D02*
X0147098Y0036270D01*
X0147098Y0036869D02*
X0108648Y0036869D01*
X0108648Y0037467D02*
X0147098Y0037467D01*
X0147098Y0038066D02*
X0108648Y0038066D01*
X0108563Y0038664D02*
X0147098Y0038664D01*
X0147098Y0039263D02*
X0107964Y0039263D01*
X0107366Y0039861D02*
X0147098Y0039861D01*
X0147098Y0040460D02*
X0106674Y0040460D01*
X0106075Y0041058D02*
X0147098Y0041058D01*
X0147098Y0041657D02*
X0105477Y0041657D01*
X0104878Y0042255D02*
X0147098Y0042255D01*
X0147098Y0042854D02*
X0104280Y0042854D01*
X0103681Y0043452D02*
X0147098Y0043452D01*
X0147098Y0044051D02*
X0103083Y0044051D01*
X0102484Y0044649D02*
X0147098Y0044649D01*
X0147098Y0045248D02*
X0101886Y0045248D01*
X0101287Y0045846D02*
X0147098Y0045846D01*
X0147098Y0046445D02*
X0100689Y0046445D01*
X0100090Y0047043D02*
X0147098Y0047043D01*
X0147098Y0047642D02*
X0099492Y0047642D01*
X0098948Y0048240D02*
X0147098Y0048240D01*
X0147098Y0048839D02*
X0098948Y0048839D01*
X0098948Y0049437D02*
X0147098Y0049437D01*
X0147098Y0050036D02*
X0098948Y0050036D01*
X0098948Y0050634D02*
X0147098Y0050634D01*
X0147098Y0051233D02*
X0098948Y0051233D01*
X0098948Y0051832D02*
X0147098Y0051832D01*
X0147098Y0052430D02*
X0098948Y0052430D01*
X0098948Y0053029D02*
X0147098Y0053029D01*
X0147098Y0053627D02*
X0098948Y0053627D01*
X0098948Y0054226D02*
X0147098Y0054226D01*
X0147098Y0054824D02*
X0098948Y0054824D01*
X0098948Y0055423D02*
X0147098Y0055423D01*
X0147098Y0056021D02*
X0098948Y0056021D01*
X0098948Y0056620D02*
X0147098Y0056620D01*
X0147098Y0057218D02*
X0124150Y0057218D01*
X0123580Y0056648D02*
X0124898Y0057966D01*
X0124898Y0059830D01*
X0123580Y0061148D01*
X0121716Y0061148D01*
X0120766Y0060198D01*
X0120686Y0060198D01*
X0118948Y0061936D01*
X0118948Y0075759D01*
X0119609Y0075098D01*
X0120398Y0074309D01*
X0120398Y0072966D01*
X0121716Y0071648D01*
X0123580Y0071648D01*
X0124898Y0072966D01*
X0124898Y0074830D01*
X0123580Y0076148D01*
X0122236Y0076148D01*
X0121448Y0076936D01*
X0121448Y0083186D01*
X0120686Y0083948D01*
X0118186Y0086448D01*
X0083186Y0086448D01*
X0080198Y0089436D01*
X0079436Y0090198D01*
X0072109Y0090198D01*
X0071348Y0089436D01*
X0069609Y0087698D01*
X0058186Y0087698D01*
X0035814Y0110070D01*
X0034040Y0110070D01*
X0034040Y0110324D01*
X0033625Y0110738D01*
X0034040Y0111153D01*
X0034040Y0114261D01*
X0033513Y0114788D01*
X0031500Y0114788D01*
X0031500Y0116030D01*
X0032817Y0117348D01*
X0033205Y0117348D01*
X0034234Y0117774D01*
X0035021Y0118562D01*
X0035448Y0119591D01*
X0035448Y0120705D01*
X0035021Y0121734D01*
X0034234Y0122521D01*
X0033205Y0122948D01*
X0032091Y0122948D01*
X0031062Y0122521D01*
X0030274Y0121734D01*
X0029848Y0120705D01*
X0029848Y0120317D01*
X0027300Y0117769D01*
X0027300Y0114788D01*
X0025287Y0114788D01*
X0024759Y0114261D01*
X0024759Y0111153D01*
X0025174Y0110738D01*
X0024759Y0110324D01*
X0024759Y0107216D01*
X0025174Y0106801D01*
X0024759Y0106387D01*
X0024759Y0103279D01*
X0025174Y0102864D01*
X0024759Y0102450D01*
X0024759Y0099342D01*
X0025174Y0098927D01*
X0024759Y0098513D01*
X0024759Y0095405D01*
X0024899Y0095265D01*
X0024861Y0095243D01*
X0024619Y0095001D01*
X0024448Y0094705D01*
X0024359Y0094374D01*
X0024359Y0093312D01*
X0029109Y0093312D01*
X0029109Y0092731D01*
X0024359Y0092731D01*
X0024359Y0091669D01*
X0024448Y0091339D01*
X0024619Y0091042D01*
X0024861Y0090800D01*
X0024899Y0090778D01*
X0024759Y0090639D01*
X0024759Y0087531D01*
X0025174Y0087116D01*
X0024759Y0086702D01*
X0024759Y0083594D01*
X0024899Y0083454D01*
X0024861Y0083432D01*
X0024619Y0083190D01*
X0024448Y0082894D01*
X0024359Y0082563D01*
X0024359Y0081501D01*
X0029109Y0081501D01*
X0029109Y0080920D01*
X0024359Y0080920D01*
X0024359Y0079858D01*
X0024448Y0079528D01*
X0024619Y0079231D01*
X0024861Y0078989D01*
X0024899Y0078967D01*
X0024759Y0078828D01*
X0024759Y0075720D01*
X0025174Y0075305D01*
X0024759Y0074891D01*
X0024759Y0071783D01*
X0024899Y0071643D01*
X0024861Y0071621D01*
X0024619Y0071379D01*
X0024448Y0071082D01*
X0024359Y0070752D01*
X0024359Y0069690D01*
X0029109Y0069690D01*
X0029109Y0069109D01*
X0024359Y0069109D01*
X0024359Y0068047D01*
X0024448Y0067717D01*
X0024619Y0067420D01*
X0024861Y0067178D01*
X0024899Y0067156D01*
X0024759Y0067016D01*
X0024759Y0063909D01*
X0025174Y0063494D01*
X0024759Y0063079D01*
X0024759Y0059972D01*
X0024899Y0059832D01*
X0024861Y0059810D01*
X0024619Y0059568D01*
X0024448Y0059271D01*
X0024359Y0058941D01*
X0024359Y0057879D01*
X0029109Y0057879D01*
X0029109Y0057298D01*
X0024359Y0057298D01*
X0024359Y0056236D01*
X0024448Y0055906D01*
X0024619Y0055609D01*
X0024861Y0055367D01*
X0025158Y0055196D01*
X0025488Y0055107D01*
X0029109Y0055107D01*
X0029109Y0057298D01*
X0029690Y0057298D01*
X0029690Y0055107D01*
X0033311Y0055107D01*
X0033642Y0055196D01*
X0033938Y0055367D01*
X0034180Y0055609D01*
X0034351Y0055906D01*
X0034440Y0056236D01*
X0034440Y0057298D01*
X0029690Y0057298D01*
X0029690Y0057879D01*
X0034440Y0057879D01*
X0034440Y0058941D01*
X0034351Y0059271D01*
X0034180Y0059568D01*
X0033938Y0059810D01*
X0033900Y0059832D01*
X0034040Y0059972D01*
X0034040Y0061615D01*
X0036877Y0061615D01*
X0040379Y0065116D01*
X0041081Y0065819D01*
X0041081Y0071725D01*
X0041288Y0071931D01*
X0041893Y0071326D01*
X0043757Y0071326D01*
X0045075Y0072644D01*
X0045075Y0074508D01*
X0044357Y0075226D01*
X0045075Y0075944D01*
X0045075Y0077808D01*
X0043757Y0079126D01*
X0041893Y0079126D01*
X0040575Y0077808D01*
X0040575Y0076309D01*
X0037598Y0073332D01*
X0037598Y0074480D01*
X0036730Y0075348D01*
X0037598Y0076216D01*
X0037598Y0078080D01*
X0036280Y0079398D01*
X0034416Y0079398D01*
X0033943Y0078925D01*
X0033900Y0078967D01*
X0033938Y0078989D01*
X0034180Y0079231D01*
X0034351Y0079528D01*
X0034440Y0079858D01*
X0034440Y0080920D01*
X0029690Y0080920D01*
X0029690Y0081501D01*
X0034440Y0081501D01*
X0034440Y0082563D01*
X0034351Y0082894D01*
X0034180Y0083190D01*
X0033938Y0083432D01*
X0033900Y0083454D01*
X0034040Y0083594D01*
X0034040Y0084298D01*
X0035200Y0083137D01*
X0037064Y0083137D01*
X0038382Y0084455D01*
X0038382Y0086319D01*
X0037664Y0087037D01*
X0038382Y0087755D01*
X0038382Y0089619D01*
X0037064Y0090937D01*
X0035200Y0090937D01*
X0034040Y0089777D01*
X0034040Y0090639D01*
X0033900Y0090778D01*
X0033938Y0090800D01*
X0034180Y0091042D01*
X0034351Y0091339D01*
X0034440Y0091669D01*
X0034440Y0092731D01*
X0029690Y0092731D01*
X0029690Y0093312D01*
X0034440Y0093312D01*
X0034440Y0094374D01*
X0034351Y0094705D01*
X0034180Y0095001D01*
X0033938Y0095243D01*
X0033900Y0095265D01*
X0034040Y0095405D01*
X0034040Y0095659D01*
X0035298Y0095659D01*
X0053359Y0077598D01*
X0097016Y0077598D01*
X0097966Y0076648D01*
X0099830Y0076648D01*
X0101148Y0077966D01*
X0101148Y0079830D01*
X0099830Y0081148D01*
X0097966Y0081148D01*
X0097016Y0080198D01*
X0074536Y0080198D01*
X0074736Y0080398D01*
X0076080Y0080398D01*
X0077398Y0081716D01*
X0077398Y0083580D01*
X0076080Y0084898D01*
X0074236Y0084898D01*
X0074436Y0085098D01*
X0077109Y0085098D01*
X0080098Y0082109D01*
X0080859Y0081348D01*
X0114609Y0081348D01*
X0116348Y0079609D01*
X0116348Y0060859D01*
X0118848Y0058359D01*
X0119609Y0057598D01*
X0120766Y0057598D01*
X0121716Y0056648D01*
X0123580Y0056648D01*
X0124749Y0057817D02*
X0147098Y0057817D01*
X0147098Y0058415D02*
X0124898Y0058415D01*
X0124898Y0059014D02*
X0147098Y0059014D01*
X0147098Y0059612D02*
X0124898Y0059612D01*
X0124517Y0060211D02*
X0147098Y0060211D01*
X0147098Y0060809D02*
X0123918Y0060809D01*
X0121377Y0060809D02*
X0120075Y0060809D01*
X0120673Y0060211D02*
X0120779Y0060211D01*
X0119476Y0061408D02*
X0147098Y0061408D01*
X0147098Y0062006D02*
X0118948Y0062006D01*
X0118948Y0062605D02*
X0147098Y0062605D01*
X0147098Y0063203D02*
X0118948Y0063203D01*
X0118948Y0063802D02*
X0147098Y0063802D01*
X0147098Y0064400D02*
X0118948Y0064400D01*
X0118948Y0064999D02*
X0147098Y0064999D01*
X0147098Y0065597D02*
X0118948Y0065597D01*
X0118948Y0066196D02*
X0147098Y0066196D01*
X0147098Y0066794D02*
X0118948Y0066794D01*
X0118948Y0067393D02*
X0147098Y0067393D01*
X0147098Y0067991D02*
X0118948Y0067991D01*
X0118948Y0068590D02*
X0147098Y0068590D01*
X0147098Y0069188D02*
X0118948Y0069188D01*
X0118948Y0069787D02*
X0147098Y0069787D01*
X0147098Y0070385D02*
X0118948Y0070385D01*
X0118948Y0070984D02*
X0147098Y0070984D01*
X0147098Y0071582D02*
X0118948Y0071582D01*
X0118948Y0072181D02*
X0121182Y0072181D01*
X0120584Y0072779D02*
X0118948Y0072779D01*
X0118948Y0073378D02*
X0120398Y0073378D01*
X0120398Y0073976D02*
X0118948Y0073976D01*
X0118948Y0074575D02*
X0120132Y0074575D01*
X0119609Y0075098D02*
X0119609Y0075098D01*
X0119533Y0075173D02*
X0118948Y0075173D01*
X0121448Y0076969D02*
X0147098Y0076969D01*
X0147098Y0077568D02*
X0121448Y0077568D01*
X0121448Y0078166D02*
X0147098Y0078166D01*
X0147098Y0078765D02*
X0121448Y0078765D01*
X0121448Y0079363D02*
X0147098Y0079363D01*
X0147098Y0079962D02*
X0121448Y0079962D01*
X0121448Y0080560D02*
X0147098Y0080560D01*
X0147098Y0081159D02*
X0121448Y0081159D01*
X0121448Y0081757D02*
X0147098Y0081757D01*
X0147098Y0082356D02*
X0121448Y0082356D01*
X0121448Y0082954D02*
X0147098Y0082954D01*
X0147098Y0083553D02*
X0121081Y0083553D01*
X0120483Y0084151D02*
X0147098Y0084151D01*
X0147098Y0084750D02*
X0119884Y0084750D01*
X0119286Y0085348D02*
X0147098Y0085348D01*
X0147098Y0085947D02*
X0118687Y0085947D01*
X0114798Y0081159D02*
X0076841Y0081159D01*
X0077398Y0081757D02*
X0080450Y0081757D01*
X0080098Y0082109D02*
X0080098Y0082109D01*
X0079851Y0082356D02*
X0077398Y0082356D01*
X0077398Y0082954D02*
X0079253Y0082954D01*
X0078654Y0083553D02*
X0077398Y0083553D01*
X0076826Y0084151D02*
X0078056Y0084151D01*
X0077457Y0084750D02*
X0076228Y0084750D01*
X0076242Y0080560D02*
X0097378Y0080560D01*
X0097046Y0077568D02*
X0045075Y0077568D01*
X0045075Y0076969D02*
X0058787Y0076969D01*
X0059216Y0077398D02*
X0057898Y0076080D01*
X0057898Y0074216D01*
X0059216Y0072898D01*
X0061080Y0072898D01*
X0062030Y0073848D01*
X0087016Y0073848D01*
X0087966Y0072898D01*
X0089830Y0072898D01*
X0091148Y0074216D01*
X0091148Y0076080D01*
X0089830Y0077398D01*
X0087966Y0077398D01*
X0087016Y0076448D01*
X0062030Y0076448D01*
X0061080Y0077398D01*
X0059216Y0077398D01*
X0058189Y0076370D02*
X0045075Y0076370D01*
X0044902Y0075772D02*
X0057898Y0075772D01*
X0057898Y0075173D02*
X0044410Y0075173D01*
X0045008Y0074575D02*
X0057898Y0074575D01*
X0058137Y0073976D02*
X0045075Y0073976D01*
X0045075Y0073378D02*
X0058735Y0073378D01*
X0061560Y0073378D02*
X0087485Y0073378D01*
X0090310Y0073378D02*
X0093735Y0073378D01*
X0093848Y0072779D02*
X0045075Y0072779D01*
X0044611Y0072181D02*
X0093848Y0072181D01*
X0093848Y0071582D02*
X0044013Y0071582D01*
X0042825Y0073576D02*
X0042825Y0074626D01*
X0042286Y0074626D01*
X0039881Y0072222D01*
X0039881Y0066316D01*
X0036380Y0062815D01*
X0030689Y0062815D01*
X0029400Y0061526D01*
X0030847Y0064015D02*
X0035883Y0064015D01*
X0038681Y0066814D01*
X0038681Y0072719D01*
X0041789Y0075826D01*
X0042825Y0075826D01*
X0042825Y0076876D01*
X0040575Y0076969D02*
X0037598Y0076969D01*
X0037598Y0077568D02*
X0040575Y0077568D01*
X0040932Y0078166D02*
X0037511Y0078166D01*
X0036913Y0078765D02*
X0041531Y0078765D01*
X0040575Y0076370D02*
X0037598Y0076370D01*
X0037154Y0075772D02*
X0040037Y0075772D01*
X0039439Y0075173D02*
X0036904Y0075173D01*
X0037502Y0074575D02*
X0038840Y0074575D01*
X0038242Y0073976D02*
X0037598Y0073976D01*
X0037598Y0073378D02*
X0037643Y0073378D01*
X0037481Y0072500D02*
X0037481Y0072222D01*
X0037481Y0067311D01*
X0035386Y0065215D01*
X0034040Y0065215D01*
X0034040Y0067016D01*
X0033900Y0067156D01*
X0033938Y0067178D01*
X0034180Y0067420D01*
X0034351Y0067717D01*
X0034440Y0068047D01*
X0034440Y0069109D01*
X0029690Y0069109D01*
X0029690Y0069690D01*
X0034440Y0069690D01*
X0034440Y0070752D01*
X0034351Y0071082D01*
X0034180Y0071379D01*
X0033938Y0071621D01*
X0033900Y0071643D01*
X0033985Y0071728D01*
X0034416Y0071298D01*
X0036280Y0071298D01*
X0037481Y0072500D01*
X0037481Y0072181D02*
X0037163Y0072181D01*
X0037481Y0071582D02*
X0036564Y0071582D01*
X0037481Y0070984D02*
X0034378Y0070984D01*
X0034440Y0070385D02*
X0037481Y0070385D01*
X0037481Y0069787D02*
X0034440Y0069787D01*
X0034440Y0068590D02*
X0037481Y0068590D01*
X0037481Y0069188D02*
X0029690Y0069188D01*
X0029109Y0069188D02*
X0023272Y0069188D01*
X0023272Y0068590D02*
X0024359Y0068590D01*
X0024374Y0067991D02*
X0023272Y0067991D01*
X0023272Y0067393D02*
X0024647Y0067393D01*
X0024759Y0066794D02*
X0023272Y0066794D01*
X0023272Y0066196D02*
X0024759Y0066196D01*
X0024759Y0065597D02*
X0023272Y0065597D01*
X0023272Y0064999D02*
X0024759Y0064999D01*
X0024759Y0064400D02*
X0023272Y0064400D01*
X0023272Y0063802D02*
X0024866Y0063802D01*
X0024883Y0063203D02*
X0023272Y0063203D01*
X0023272Y0062605D02*
X0024759Y0062605D01*
X0024759Y0062006D02*
X0023272Y0062006D01*
X0023272Y0061408D02*
X0024759Y0061408D01*
X0024759Y0060809D02*
X0023272Y0060809D01*
X0023272Y0060211D02*
X0024759Y0060211D01*
X0024663Y0059612D02*
X0023272Y0059612D01*
X0023272Y0059014D02*
X0024379Y0059014D01*
X0024359Y0058415D02*
X0023272Y0058415D01*
X0023272Y0057817D02*
X0029109Y0057817D01*
X0029690Y0057817D02*
X0072098Y0057817D01*
X0072098Y0058415D02*
X0034440Y0058415D01*
X0034420Y0059014D02*
X0072098Y0059014D01*
X0072098Y0059612D02*
X0034136Y0059612D01*
X0034040Y0060211D02*
X0072098Y0060211D01*
X0072098Y0060481D02*
X0072098Y0051723D01*
X0073022Y0050122D01*
X0074559Y0049234D01*
X0073022Y0048347D01*
X0073022Y0048347D01*
X0073022Y0048347D01*
X0072098Y0046746D01*
X0072098Y0043393D01*
X0071716Y0043011D01*
X0071163Y0043564D01*
X0069299Y0043564D01*
X0067981Y0042246D01*
X0067981Y0040382D01*
X0069299Y0039064D01*
X0070314Y0039064D01*
X0070314Y0038049D01*
X0071632Y0036731D01*
X0073496Y0036731D01*
X0074814Y0038049D01*
X0074814Y0039913D01*
X0074261Y0040466D01*
X0074995Y0041199D01*
X0074995Y0041199D01*
X0075698Y0041902D01*
X0075698Y0045671D01*
X0077878Y0045671D01*
X0079480Y0046596D01*
X0080404Y0048197D01*
X0080404Y0050272D01*
X0079480Y0051873D01*
X0079480Y0051873D01*
X0079480Y0051873D01*
X0077878Y0052798D01*
X0075698Y0052798D01*
X0075698Y0063393D01*
X0075511Y0063579D01*
X0076064Y0064132D01*
X0076064Y0065996D01*
X0074746Y0067314D01*
X0072882Y0067314D01*
X0071564Y0065996D01*
X0071564Y0064981D01*
X0070549Y0064981D01*
X0069231Y0063663D01*
X0069231Y0061799D01*
X0070549Y0060481D01*
X0072098Y0060481D01*
X0073298Y0062399D02*
X0072223Y0063473D01*
X0071481Y0062731D01*
X0073298Y0062399D02*
X0073298Y0052648D01*
X0074498Y0052648D02*
X0074498Y0062896D01*
X0073072Y0064322D01*
X0073814Y0065064D01*
X0076064Y0064999D02*
X0093848Y0064999D01*
X0093848Y0065597D02*
X0076064Y0065597D01*
X0075865Y0066196D02*
X0093848Y0066196D01*
X0093848Y0066794D02*
X0075266Y0066794D01*
X0076064Y0064400D02*
X0093848Y0064400D01*
X0093848Y0063802D02*
X0075734Y0063802D01*
X0075698Y0063203D02*
X0093848Y0063203D01*
X0093848Y0062605D02*
X0075698Y0062605D01*
X0075698Y0062006D02*
X0093848Y0062006D01*
X0093848Y0061408D02*
X0075698Y0061408D01*
X0075698Y0060809D02*
X0093848Y0060809D01*
X0093848Y0060211D02*
X0075698Y0060211D01*
X0075698Y0059612D02*
X0093848Y0059612D01*
X0093848Y0059014D02*
X0075698Y0059014D01*
X0075698Y0058415D02*
X0093848Y0058415D01*
X0093848Y0057817D02*
X0075698Y0057817D01*
X0075698Y0057218D02*
X0093848Y0057218D01*
X0093848Y0056620D02*
X0075698Y0056620D01*
X0075698Y0056021D02*
X0093848Y0056021D01*
X0093848Y0055423D02*
X0075698Y0055423D01*
X0075698Y0054824D02*
X0093848Y0054824D01*
X0093848Y0054226D02*
X0075698Y0054226D01*
X0075698Y0053627D02*
X0093848Y0053627D01*
X0093848Y0053029D02*
X0075698Y0053029D01*
X0073298Y0052648D02*
X0073300Y0052555D01*
X0073306Y0052462D01*
X0073315Y0052370D01*
X0073329Y0052278D01*
X0073346Y0052186D01*
X0073367Y0052096D01*
X0073392Y0052006D01*
X0073420Y0051917D01*
X0073452Y0051830D01*
X0073488Y0051744D01*
X0073527Y0051660D01*
X0073569Y0051577D01*
X0073615Y0051496D01*
X0073664Y0051417D01*
X0073717Y0051341D01*
X0073772Y0051266D01*
X0073831Y0051194D01*
X0073893Y0051124D01*
X0073957Y0051057D01*
X0074024Y0050993D01*
X0074094Y0050931D01*
X0074166Y0050872D01*
X0074241Y0050817D01*
X0074317Y0050764D01*
X0074396Y0050715D01*
X0074477Y0050669D01*
X0074560Y0050627D01*
X0074644Y0050588D01*
X0074730Y0050552D01*
X0074817Y0050520D01*
X0074906Y0050492D01*
X0074996Y0050467D01*
X0075086Y0050446D01*
X0075178Y0050429D01*
X0075270Y0050415D01*
X0075362Y0050406D01*
X0075455Y0050400D01*
X0075548Y0050398D01*
X0076954Y0050398D01*
X0077017Y0050396D01*
X0077081Y0050390D01*
X0077143Y0050381D01*
X0077205Y0050367D01*
X0077266Y0050350D01*
X0077326Y0050330D01*
X0077385Y0050305D01*
X0077442Y0050278D01*
X0077497Y0050247D01*
X0077550Y0050212D01*
X0077602Y0050175D01*
X0077650Y0050134D01*
X0077696Y0050090D01*
X0077740Y0050044D01*
X0077781Y0049996D01*
X0077818Y0049944D01*
X0077853Y0049891D01*
X0077884Y0049836D01*
X0077911Y0049779D01*
X0077936Y0049720D01*
X0077956Y0049660D01*
X0077973Y0049599D01*
X0077987Y0049537D01*
X0077996Y0049475D01*
X0078002Y0049411D01*
X0078004Y0049348D01*
X0078004Y0049121D01*
X0078002Y0049058D01*
X0077996Y0048994D01*
X0077987Y0048932D01*
X0077973Y0048870D01*
X0077956Y0048809D01*
X0077936Y0048749D01*
X0077911Y0048690D01*
X0077884Y0048633D01*
X0077853Y0048578D01*
X0077818Y0048525D01*
X0077781Y0048473D01*
X0077740Y0048425D01*
X0077696Y0048379D01*
X0077650Y0048335D01*
X0077602Y0048294D01*
X0077550Y0048257D01*
X0077497Y0048222D01*
X0077442Y0048191D01*
X0077385Y0048164D01*
X0077326Y0048139D01*
X0077266Y0048119D01*
X0077205Y0048102D01*
X0077143Y0048088D01*
X0077081Y0048079D01*
X0077017Y0048073D01*
X0076954Y0048071D01*
X0075548Y0048071D01*
X0075548Y0046871D02*
X0076954Y0046871D01*
X0078182Y0045846D02*
X0093848Y0045846D01*
X0093848Y0045248D02*
X0075698Y0045248D01*
X0073298Y0045821D02*
X0073300Y0045914D01*
X0073306Y0046007D01*
X0073315Y0046099D01*
X0073329Y0046191D01*
X0073346Y0046283D01*
X0073367Y0046373D01*
X0073392Y0046463D01*
X0073420Y0046552D01*
X0073452Y0046639D01*
X0073488Y0046725D01*
X0073527Y0046809D01*
X0073569Y0046892D01*
X0073615Y0046973D01*
X0073664Y0047052D01*
X0073717Y0047128D01*
X0073772Y0047203D01*
X0073831Y0047275D01*
X0073893Y0047345D01*
X0073957Y0047412D01*
X0074024Y0047476D01*
X0074094Y0047538D01*
X0074166Y0047597D01*
X0074241Y0047652D01*
X0074317Y0047705D01*
X0074396Y0047754D01*
X0074477Y0047800D01*
X0074560Y0047842D01*
X0074644Y0047881D01*
X0074730Y0047917D01*
X0074817Y0047949D01*
X0074906Y0047977D01*
X0074996Y0048002D01*
X0075086Y0048023D01*
X0075178Y0048040D01*
X0075270Y0048054D01*
X0075362Y0048063D01*
X0075455Y0048069D01*
X0075548Y0048071D01*
X0076954Y0046871D02*
X0077047Y0046873D01*
X0077140Y0046879D01*
X0077232Y0046888D01*
X0077324Y0046902D01*
X0077416Y0046919D01*
X0077506Y0046940D01*
X0077596Y0046965D01*
X0077685Y0046993D01*
X0077772Y0047025D01*
X0077858Y0047061D01*
X0077942Y0047100D01*
X0078025Y0047142D01*
X0078106Y0047188D01*
X0078185Y0047237D01*
X0078261Y0047290D01*
X0078336Y0047345D01*
X0078408Y0047404D01*
X0078478Y0047466D01*
X0078545Y0047530D01*
X0078609Y0047597D01*
X0078671Y0047667D01*
X0078730Y0047739D01*
X0078785Y0047814D01*
X0078838Y0047890D01*
X0078887Y0047969D01*
X0078933Y0048050D01*
X0078975Y0048133D01*
X0079014Y0048217D01*
X0079050Y0048303D01*
X0079082Y0048390D01*
X0079110Y0048479D01*
X0079135Y0048569D01*
X0079156Y0048659D01*
X0079173Y0048751D01*
X0079187Y0048843D01*
X0079196Y0048935D01*
X0079202Y0049028D01*
X0079204Y0049121D01*
X0079204Y0049348D01*
X0080404Y0049437D02*
X0093848Y0049437D01*
X0093848Y0048839D02*
X0080404Y0048839D01*
X0080404Y0048240D02*
X0093848Y0048240D01*
X0093848Y0047642D02*
X0080084Y0047642D01*
X0079738Y0047043D02*
X0093848Y0047043D01*
X0093848Y0046445D02*
X0079218Y0046445D01*
X0079480Y0046596D02*
X0079480Y0046596D01*
X0079480Y0046596D01*
X0079204Y0049348D02*
X0079202Y0049441D01*
X0079196Y0049534D01*
X0079187Y0049626D01*
X0079173Y0049718D01*
X0079156Y0049810D01*
X0079135Y0049900D01*
X0079110Y0049990D01*
X0079082Y0050079D01*
X0079050Y0050166D01*
X0079014Y0050252D01*
X0078975Y0050336D01*
X0078933Y0050419D01*
X0078887Y0050500D01*
X0078838Y0050579D01*
X0078785Y0050655D01*
X0078730Y0050730D01*
X0078671Y0050802D01*
X0078609Y0050872D01*
X0078545Y0050939D01*
X0078478Y0051003D01*
X0078408Y0051065D01*
X0078336Y0051124D01*
X0078261Y0051179D01*
X0078185Y0051232D01*
X0078106Y0051281D01*
X0078025Y0051327D01*
X0077942Y0051369D01*
X0077858Y0051408D01*
X0077772Y0051444D01*
X0077685Y0051476D01*
X0077596Y0051504D01*
X0077506Y0051529D01*
X0077416Y0051550D01*
X0077324Y0051567D01*
X0077232Y0051581D01*
X0077140Y0051590D01*
X0077047Y0051596D01*
X0076954Y0051598D01*
X0075548Y0051598D01*
X0075485Y0051600D01*
X0075421Y0051606D01*
X0075359Y0051615D01*
X0075297Y0051629D01*
X0075236Y0051646D01*
X0075176Y0051666D01*
X0075117Y0051691D01*
X0075060Y0051718D01*
X0075005Y0051749D01*
X0074952Y0051784D01*
X0074900Y0051821D01*
X0074852Y0051862D01*
X0074806Y0051906D01*
X0074762Y0051952D01*
X0074721Y0052000D01*
X0074684Y0052052D01*
X0074649Y0052105D01*
X0074618Y0052160D01*
X0074591Y0052217D01*
X0074566Y0052276D01*
X0074546Y0052336D01*
X0074529Y0052397D01*
X0074515Y0052459D01*
X0074506Y0052521D01*
X0074500Y0052585D01*
X0074498Y0052648D01*
X0072098Y0052430D02*
X0023272Y0052430D01*
X0023272Y0051832D02*
X0072098Y0051832D01*
X0072381Y0051233D02*
X0023272Y0051233D01*
X0023272Y0050871D02*
X0023272Y0084848D01*
X0020448Y0084848D01*
X0020448Y0085448D01*
X0019848Y0085448D01*
X0019848Y0130792D01*
X0014432Y0130792D01*
X0014038Y0130686D01*
X0013684Y0130482D01*
X0013396Y0130194D01*
X0013191Y0129840D01*
X0013086Y0129446D01*
X0013086Y0085448D01*
X0019848Y0085448D01*
X0019848Y0084848D01*
X0013086Y0084848D01*
X0013086Y0040849D01*
X0013191Y0040455D01*
X0013396Y0040101D01*
X0013684Y0039813D01*
X0014038Y0039609D01*
X0014432Y0039503D01*
X0019848Y0039503D01*
X0019848Y0084848D01*
X0020448Y0084848D01*
X0020448Y0039503D01*
X0025864Y0039503D01*
X0026258Y0039609D01*
X0026611Y0039813D01*
X0026900Y0040101D01*
X0027104Y0040455D01*
X0027209Y0040849D01*
X0027209Y0049525D01*
X0027104Y0049919D01*
X0026900Y0050273D01*
X0026611Y0050561D01*
X0026258Y0050765D01*
X0025864Y0050871D01*
X0023272Y0050871D01*
X0023272Y0053029D02*
X0072098Y0053029D01*
X0072098Y0053627D02*
X0023272Y0053627D01*
X0023272Y0054226D02*
X0072098Y0054226D01*
X0072098Y0054824D02*
X0023272Y0054824D01*
X0023272Y0055423D02*
X0024806Y0055423D01*
X0024417Y0056021D02*
X0023272Y0056021D01*
X0023272Y0056620D02*
X0024359Y0056620D01*
X0024359Y0057218D02*
X0023272Y0057218D01*
X0020448Y0057218D02*
X0019848Y0057218D01*
X0019848Y0056620D02*
X0020448Y0056620D01*
X0020448Y0056021D02*
X0019848Y0056021D01*
X0019848Y0055423D02*
X0020448Y0055423D01*
X0020448Y0054824D02*
X0019848Y0054824D01*
X0019848Y0054226D02*
X0020448Y0054226D01*
X0020448Y0053627D02*
X0019848Y0053627D01*
X0019848Y0053029D02*
X0020448Y0053029D01*
X0020448Y0052430D02*
X0019848Y0052430D01*
X0019848Y0051832D02*
X0020448Y0051832D01*
X0020448Y0051233D02*
X0019848Y0051233D01*
X0019848Y0050634D02*
X0020448Y0050634D01*
X0020448Y0050036D02*
X0019848Y0050036D01*
X0019848Y0049437D02*
X0020448Y0049437D01*
X0020448Y0048839D02*
X0019848Y0048839D01*
X0019848Y0048240D02*
X0020448Y0048240D01*
X0020448Y0047642D02*
X0019848Y0047642D01*
X0019848Y0047043D02*
X0020448Y0047043D01*
X0020448Y0046445D02*
X0019848Y0046445D01*
X0019848Y0045846D02*
X0020448Y0045846D01*
X0020448Y0045248D02*
X0019848Y0045248D01*
X0019848Y0044649D02*
X0020448Y0044649D01*
X0020448Y0044051D02*
X0019848Y0044051D01*
X0019848Y0043452D02*
X0020448Y0043452D01*
X0020448Y0042854D02*
X0019848Y0042854D01*
X0019848Y0042255D02*
X0020448Y0042255D01*
X0020448Y0041657D02*
X0019848Y0041657D01*
X0019848Y0041058D02*
X0020448Y0041058D01*
X0020448Y0040460D02*
X0019848Y0040460D01*
X0019848Y0039861D02*
X0020448Y0039861D01*
X0026660Y0039861D02*
X0068502Y0039861D01*
X0067981Y0040460D02*
X0027105Y0040460D01*
X0027209Y0041058D02*
X0067981Y0041058D01*
X0067981Y0041657D02*
X0027209Y0041657D01*
X0027209Y0042255D02*
X0067990Y0042255D01*
X0068588Y0042854D02*
X0027209Y0042854D01*
X0027209Y0043452D02*
X0069187Y0043452D01*
X0071275Y0043452D02*
X0072098Y0043452D01*
X0072098Y0044051D02*
X0027209Y0044051D01*
X0027209Y0044649D02*
X0072098Y0044649D01*
X0072098Y0045248D02*
X0027209Y0045248D01*
X0027209Y0045846D02*
X0072098Y0045846D01*
X0072098Y0046445D02*
X0027209Y0046445D01*
X0027209Y0047043D02*
X0072269Y0047043D01*
X0072615Y0047642D02*
X0027209Y0047642D01*
X0027209Y0048240D02*
X0072961Y0048240D01*
X0073874Y0048839D02*
X0027209Y0048839D01*
X0027209Y0049437D02*
X0074208Y0049437D01*
X0073171Y0050036D02*
X0027036Y0050036D01*
X0026484Y0050634D02*
X0072726Y0050634D01*
X0073022Y0050122D02*
X0073022Y0050122D01*
X0073022Y0050122D01*
X0073298Y0045821D02*
X0073298Y0042896D01*
X0070973Y0040572D01*
X0070231Y0041314D01*
X0071822Y0039723D02*
X0072564Y0038981D01*
X0071822Y0039723D02*
X0074498Y0042399D01*
X0074498Y0045821D01*
X0074500Y0045884D01*
X0074506Y0045948D01*
X0074515Y0046010D01*
X0074529Y0046072D01*
X0074546Y0046133D01*
X0074566Y0046193D01*
X0074591Y0046252D01*
X0074618Y0046309D01*
X0074649Y0046364D01*
X0074684Y0046417D01*
X0074721Y0046469D01*
X0074762Y0046517D01*
X0074806Y0046563D01*
X0074852Y0046607D01*
X0074900Y0046648D01*
X0074952Y0046685D01*
X0075005Y0046720D01*
X0075060Y0046751D01*
X0075117Y0046778D01*
X0075176Y0046803D01*
X0075236Y0046823D01*
X0075297Y0046840D01*
X0075359Y0046854D01*
X0075421Y0046863D01*
X0075485Y0046869D01*
X0075548Y0046871D01*
X0075698Y0044649D02*
X0093848Y0044649D01*
X0093848Y0044051D02*
X0075698Y0044051D01*
X0075698Y0043452D02*
X0093848Y0043452D01*
X0094353Y0042854D02*
X0075698Y0042854D01*
X0075698Y0042255D02*
X0094951Y0042255D01*
X0095550Y0041657D02*
X0075452Y0041657D01*
X0074854Y0041058D02*
X0096148Y0041058D01*
X0096747Y0040460D02*
X0074267Y0040460D01*
X0074814Y0039861D02*
X0097345Y0039861D01*
X0097944Y0039263D02*
X0074814Y0039263D01*
X0074814Y0038664D02*
X0098543Y0038664D01*
X0099141Y0038066D02*
X0074814Y0038066D01*
X0074233Y0037467D02*
X0099148Y0037467D01*
X0099148Y0036869D02*
X0073634Y0036869D01*
X0071495Y0036869D02*
X0011948Y0036869D01*
X0011948Y0037467D02*
X0070896Y0037467D01*
X0070314Y0038066D02*
X0011948Y0038066D01*
X0011948Y0038664D02*
X0070314Y0038664D01*
X0069100Y0039263D02*
X0011948Y0039263D01*
X0011948Y0039861D02*
X0013636Y0039861D01*
X0013190Y0040460D02*
X0011948Y0040460D01*
X0011948Y0041058D02*
X0013086Y0041058D01*
X0013086Y0041657D02*
X0011948Y0041657D01*
X0011948Y0042255D02*
X0013086Y0042255D01*
X0013086Y0042854D02*
X0011948Y0042854D01*
X0011948Y0043452D02*
X0013086Y0043452D01*
X0013086Y0044051D02*
X0011948Y0044051D01*
X0011948Y0044649D02*
X0013086Y0044649D01*
X0013086Y0045248D02*
X0011948Y0045248D01*
X0011948Y0045846D02*
X0013086Y0045846D01*
X0013086Y0046445D02*
X0011948Y0046445D01*
X0011948Y0047043D02*
X0013086Y0047043D01*
X0013086Y0047642D02*
X0011948Y0047642D01*
X0011948Y0048240D02*
X0013086Y0048240D01*
X0013086Y0048839D02*
X0011948Y0048839D01*
X0011948Y0049437D02*
X0013086Y0049437D01*
X0013086Y0050036D02*
X0011948Y0050036D01*
X0011948Y0050634D02*
X0013086Y0050634D01*
X0013086Y0051233D02*
X0011948Y0051233D01*
X0011948Y0051832D02*
X0013086Y0051832D01*
X0013086Y0052430D02*
X0011948Y0052430D01*
X0011948Y0053029D02*
X0013086Y0053029D01*
X0013086Y0053627D02*
X0011948Y0053627D01*
X0011948Y0054226D02*
X0013086Y0054226D01*
X0013086Y0054824D02*
X0011948Y0054824D01*
X0011948Y0055423D02*
X0013086Y0055423D01*
X0013086Y0056021D02*
X0011948Y0056021D01*
X0011948Y0056620D02*
X0013086Y0056620D01*
X0013086Y0057218D02*
X0011948Y0057218D01*
X0011948Y0057817D02*
X0013086Y0057817D01*
X0013086Y0058415D02*
X0011948Y0058415D01*
X0011948Y0059014D02*
X0013086Y0059014D01*
X0013086Y0059612D02*
X0011948Y0059612D01*
X0011948Y0060211D02*
X0013086Y0060211D01*
X0013086Y0060809D02*
X0011948Y0060809D01*
X0011948Y0061408D02*
X0013086Y0061408D01*
X0013086Y0062006D02*
X0011948Y0062006D01*
X0011948Y0062605D02*
X0013086Y0062605D01*
X0013086Y0063203D02*
X0011948Y0063203D01*
X0011948Y0063802D02*
X0013086Y0063802D01*
X0013086Y0064400D02*
X0011948Y0064400D01*
X0011948Y0064999D02*
X0013086Y0064999D01*
X0013086Y0065597D02*
X0011948Y0065597D01*
X0011948Y0066196D02*
X0013086Y0066196D01*
X0013086Y0066794D02*
X0011948Y0066794D01*
X0011948Y0067393D02*
X0013086Y0067393D01*
X0013086Y0067991D02*
X0011948Y0067991D01*
X0011948Y0068590D02*
X0013086Y0068590D01*
X0013086Y0069188D02*
X0011948Y0069188D01*
X0011948Y0069787D02*
X0013086Y0069787D01*
X0013086Y0070385D02*
X0011948Y0070385D01*
X0011948Y0070984D02*
X0013086Y0070984D01*
X0013086Y0071582D02*
X0011948Y0071582D01*
X0011948Y0072181D02*
X0013086Y0072181D01*
X0013086Y0072779D02*
X0011948Y0072779D01*
X0011948Y0073378D02*
X0013086Y0073378D01*
X0013086Y0073976D02*
X0011948Y0073976D01*
X0011948Y0074575D02*
X0013086Y0074575D01*
X0013086Y0075173D02*
X0011948Y0075173D01*
X0011948Y0075772D02*
X0013086Y0075772D01*
X0013086Y0076370D02*
X0011948Y0076370D01*
X0011948Y0076969D02*
X0013086Y0076969D01*
X0013086Y0077568D02*
X0011948Y0077568D01*
X0011948Y0078166D02*
X0013086Y0078166D01*
X0013086Y0078765D02*
X0011948Y0078765D01*
X0011948Y0079363D02*
X0013086Y0079363D01*
X0013086Y0079962D02*
X0011948Y0079962D01*
X0011948Y0080560D02*
X0013086Y0080560D01*
X0013086Y0081159D02*
X0011948Y0081159D01*
X0011948Y0081757D02*
X0013086Y0081757D01*
X0013086Y0082356D02*
X0011948Y0082356D01*
X0011948Y0082954D02*
X0013086Y0082954D01*
X0013086Y0083553D02*
X0011948Y0083553D01*
X0011948Y0084151D02*
X0013086Y0084151D01*
X0013086Y0084750D02*
X0011948Y0084750D01*
X0011948Y0085348D02*
X0019848Y0085348D01*
X0019848Y0084750D02*
X0020448Y0084750D01*
X0020448Y0085348D02*
X0024759Y0085348D01*
X0024759Y0084750D02*
X0023272Y0084750D01*
X0023272Y0084151D02*
X0024759Y0084151D01*
X0024801Y0083553D02*
X0023272Y0083553D01*
X0023272Y0082954D02*
X0024483Y0082954D01*
X0024359Y0082356D02*
X0023272Y0082356D01*
X0023272Y0081757D02*
X0024359Y0081757D01*
X0024359Y0080560D02*
X0023272Y0080560D01*
X0023272Y0079962D02*
X0024359Y0079962D01*
X0024543Y0079363D02*
X0023272Y0079363D01*
X0023272Y0078765D02*
X0024759Y0078765D01*
X0024759Y0078166D02*
X0023272Y0078166D01*
X0023272Y0077568D02*
X0024759Y0077568D01*
X0024759Y0076969D02*
X0023272Y0076969D01*
X0023272Y0076370D02*
X0024759Y0076370D01*
X0024759Y0075772D02*
X0023272Y0075772D01*
X0023272Y0075173D02*
X0025042Y0075173D01*
X0024759Y0074575D02*
X0023272Y0074575D01*
X0023272Y0073976D02*
X0024759Y0073976D01*
X0024759Y0073378D02*
X0023272Y0073378D01*
X0023272Y0072779D02*
X0024759Y0072779D01*
X0024759Y0072181D02*
X0023272Y0072181D01*
X0023272Y0071582D02*
X0024823Y0071582D01*
X0024422Y0070984D02*
X0023272Y0070984D01*
X0023272Y0070385D02*
X0024359Y0070385D01*
X0024359Y0069787D02*
X0023272Y0069787D01*
X0020448Y0069787D02*
X0019848Y0069787D01*
X0019848Y0070385D02*
X0020448Y0070385D01*
X0020448Y0070984D02*
X0019848Y0070984D01*
X0019848Y0071582D02*
X0020448Y0071582D01*
X0020448Y0072181D02*
X0019848Y0072181D01*
X0019848Y0072779D02*
X0020448Y0072779D01*
X0020448Y0073378D02*
X0019848Y0073378D01*
X0019848Y0073976D02*
X0020448Y0073976D01*
X0020448Y0074575D02*
X0019848Y0074575D01*
X0019848Y0075173D02*
X0020448Y0075173D01*
X0020448Y0075772D02*
X0019848Y0075772D01*
X0019848Y0076370D02*
X0020448Y0076370D01*
X0020448Y0076969D02*
X0019848Y0076969D01*
X0019848Y0077568D02*
X0020448Y0077568D01*
X0020448Y0078166D02*
X0019848Y0078166D01*
X0019848Y0078765D02*
X0020448Y0078765D01*
X0020448Y0079363D02*
X0019848Y0079363D01*
X0019848Y0079962D02*
X0020448Y0079962D01*
X0020448Y0080560D02*
X0019848Y0080560D01*
X0019848Y0081159D02*
X0020448Y0081159D01*
X0020448Y0081757D02*
X0019848Y0081757D01*
X0019848Y0082356D02*
X0020448Y0082356D01*
X0020448Y0082954D02*
X0019848Y0082954D01*
X0019848Y0083553D02*
X0020448Y0083553D01*
X0020448Y0084151D02*
X0019848Y0084151D01*
X0020448Y0085448D02*
X0023272Y0085448D01*
X0023272Y0119424D01*
X0025864Y0119424D01*
X0026258Y0119530D01*
X0026611Y0119734D01*
X0026900Y0120023D01*
X0027104Y0120376D01*
X0027209Y0120770D01*
X0027209Y0129446D01*
X0027104Y0129840D01*
X0026900Y0130194D01*
X0026611Y0130482D01*
X0026258Y0130686D01*
X0025864Y0130792D01*
X0020448Y0130792D01*
X0020448Y0085448D01*
X0020448Y0085947D02*
X0019848Y0085947D01*
X0019848Y0086545D02*
X0020448Y0086545D01*
X0020448Y0087144D02*
X0019848Y0087144D01*
X0019848Y0087742D02*
X0020448Y0087742D01*
X0020448Y0088341D02*
X0019848Y0088341D01*
X0019848Y0088939D02*
X0020448Y0088939D01*
X0020448Y0089538D02*
X0019848Y0089538D01*
X0019848Y0090136D02*
X0020448Y0090136D01*
X0020448Y0090735D02*
X0019848Y0090735D01*
X0019848Y0091333D02*
X0020448Y0091333D01*
X0020448Y0091932D02*
X0019848Y0091932D01*
X0019848Y0092530D02*
X0020448Y0092530D01*
X0020448Y0093129D02*
X0019848Y0093129D01*
X0019848Y0093727D02*
X0020448Y0093727D01*
X0020448Y0094326D02*
X0019848Y0094326D01*
X0019848Y0094924D02*
X0020448Y0094924D01*
X0020448Y0095523D02*
X0019848Y0095523D01*
X0019848Y0096121D02*
X0020448Y0096121D01*
X0020448Y0096720D02*
X0019848Y0096720D01*
X0019848Y0097318D02*
X0020448Y0097318D01*
X0020448Y0097917D02*
X0019848Y0097917D01*
X0019848Y0098515D02*
X0020448Y0098515D01*
X0020448Y0099114D02*
X0019848Y0099114D01*
X0019848Y0099712D02*
X0020448Y0099712D01*
X0020448Y0100311D02*
X0019848Y0100311D01*
X0019848Y0100909D02*
X0020448Y0100909D01*
X0020448Y0101508D02*
X0019848Y0101508D01*
X0019848Y0102106D02*
X0020448Y0102106D01*
X0020448Y0102705D02*
X0019848Y0102705D01*
X0019848Y0103303D02*
X0020448Y0103303D01*
X0020448Y0103902D02*
X0019848Y0103902D01*
X0019848Y0104501D02*
X0020448Y0104501D01*
X0020448Y0105099D02*
X0019848Y0105099D01*
X0019848Y0105698D02*
X0020448Y0105698D01*
X0020448Y0106296D02*
X0019848Y0106296D01*
X0019848Y0106895D02*
X0020448Y0106895D01*
X0020448Y0107493D02*
X0019848Y0107493D01*
X0019848Y0108092D02*
X0020448Y0108092D01*
X0020448Y0108690D02*
X0019848Y0108690D01*
X0019848Y0109289D02*
X0020448Y0109289D01*
X0020448Y0109887D02*
X0019848Y0109887D01*
X0019848Y0110486D02*
X0020448Y0110486D01*
X0020448Y0111084D02*
X0019848Y0111084D01*
X0019848Y0111683D02*
X0020448Y0111683D01*
X0020448Y0112281D02*
X0019848Y0112281D01*
X0019848Y0112880D02*
X0020448Y0112880D01*
X0020448Y0113478D02*
X0019848Y0113478D01*
X0019848Y0114077D02*
X0020448Y0114077D01*
X0020448Y0114675D02*
X0019848Y0114675D01*
X0019848Y0115274D02*
X0020448Y0115274D01*
X0020448Y0115872D02*
X0019848Y0115872D01*
X0019848Y0116471D02*
X0020448Y0116471D01*
X0020448Y0117069D02*
X0019848Y0117069D01*
X0019848Y0117668D02*
X0020448Y0117668D01*
X0020448Y0118266D02*
X0019848Y0118266D01*
X0019848Y0118865D02*
X0020448Y0118865D01*
X0020448Y0119463D02*
X0019848Y0119463D01*
X0019848Y0120062D02*
X0020448Y0120062D01*
X0020448Y0120660D02*
X0019848Y0120660D01*
X0019848Y0121259D02*
X0020448Y0121259D01*
X0020448Y0121857D02*
X0019848Y0121857D01*
X0019848Y0122456D02*
X0020448Y0122456D01*
X0020448Y0123054D02*
X0019848Y0123054D01*
X0019848Y0123653D02*
X0020448Y0123653D01*
X0020448Y0124251D02*
X0019848Y0124251D01*
X0019848Y0124850D02*
X0020448Y0124850D01*
X0020448Y0125448D02*
X0019848Y0125448D01*
X0019848Y0126047D02*
X0020448Y0126047D01*
X0020448Y0126645D02*
X0019848Y0126645D01*
X0019848Y0127244D02*
X0020448Y0127244D01*
X0020448Y0127842D02*
X0019848Y0127842D01*
X0019848Y0128441D02*
X0020448Y0128441D01*
X0020448Y0129039D02*
X0019848Y0129039D01*
X0019848Y0129638D02*
X0020448Y0129638D01*
X0020448Y0130237D02*
X0019848Y0130237D01*
X0026857Y0130237D02*
X0066970Y0130237D01*
X0066372Y0130835D02*
X0011948Y0130835D01*
X0011948Y0130237D02*
X0013438Y0130237D01*
X0013137Y0129638D02*
X0011948Y0129638D01*
X0011948Y0129039D02*
X0013086Y0129039D01*
X0013086Y0128441D02*
X0011948Y0128441D01*
X0011948Y0127842D02*
X0013086Y0127842D01*
X0013086Y0127244D02*
X0011948Y0127244D01*
X0011948Y0126645D02*
X0013086Y0126645D01*
X0013086Y0126047D02*
X0011948Y0126047D01*
X0011948Y0125448D02*
X0013086Y0125448D01*
X0013086Y0124850D02*
X0011948Y0124850D01*
X0011948Y0124251D02*
X0013086Y0124251D01*
X0013086Y0123653D02*
X0011948Y0123653D01*
X0011948Y0123054D02*
X0013086Y0123054D01*
X0013086Y0122456D02*
X0011948Y0122456D01*
X0011948Y0121857D02*
X0013086Y0121857D01*
X0013086Y0121259D02*
X0011948Y0121259D01*
X0011948Y0120660D02*
X0013086Y0120660D01*
X0013086Y0120062D02*
X0011948Y0120062D01*
X0011948Y0119463D02*
X0013086Y0119463D01*
X0013086Y0118865D02*
X0011948Y0118865D01*
X0011948Y0118266D02*
X0013086Y0118266D01*
X0013086Y0117668D02*
X0011948Y0117668D01*
X0011948Y0117069D02*
X0013086Y0117069D01*
X0013086Y0116471D02*
X0011948Y0116471D01*
X0011948Y0115872D02*
X0013086Y0115872D01*
X0013086Y0115274D02*
X0011948Y0115274D01*
X0011948Y0114675D02*
X0013086Y0114675D01*
X0013086Y0114077D02*
X0011948Y0114077D01*
X0011948Y0113478D02*
X0013086Y0113478D01*
X0013086Y0112880D02*
X0011948Y0112880D01*
X0011948Y0112281D02*
X0013086Y0112281D01*
X0013086Y0111683D02*
X0011948Y0111683D01*
X0011948Y0111084D02*
X0013086Y0111084D01*
X0013086Y0110486D02*
X0011948Y0110486D01*
X0011948Y0109887D02*
X0013086Y0109887D01*
X0013086Y0109289D02*
X0011948Y0109289D01*
X0011948Y0108690D02*
X0013086Y0108690D01*
X0013086Y0108092D02*
X0011948Y0108092D01*
X0011948Y0107493D02*
X0013086Y0107493D01*
X0013086Y0106895D02*
X0011948Y0106895D01*
X0011948Y0106296D02*
X0013086Y0106296D01*
X0013086Y0105698D02*
X0011948Y0105698D01*
X0011948Y0105099D02*
X0013086Y0105099D01*
X0013086Y0104501D02*
X0011948Y0104501D01*
X0011948Y0103902D02*
X0013086Y0103902D01*
X0013086Y0103303D02*
X0011948Y0103303D01*
X0011948Y0102705D02*
X0013086Y0102705D01*
X0013086Y0102106D02*
X0011948Y0102106D01*
X0011948Y0101508D02*
X0013086Y0101508D01*
X0013086Y0100909D02*
X0011948Y0100909D01*
X0011948Y0100311D02*
X0013086Y0100311D01*
X0013086Y0099712D02*
X0011948Y0099712D01*
X0011948Y0099114D02*
X0013086Y0099114D01*
X0013086Y0098515D02*
X0011948Y0098515D01*
X0011948Y0097917D02*
X0013086Y0097917D01*
X0013086Y0097318D02*
X0011948Y0097318D01*
X0011948Y0096720D02*
X0013086Y0096720D01*
X0013086Y0096121D02*
X0011948Y0096121D01*
X0011948Y0095523D02*
X0013086Y0095523D01*
X0013086Y0094924D02*
X0011948Y0094924D01*
X0011948Y0094326D02*
X0013086Y0094326D01*
X0013086Y0093727D02*
X0011948Y0093727D01*
X0011948Y0093129D02*
X0013086Y0093129D01*
X0013086Y0092530D02*
X0011948Y0092530D01*
X0011948Y0091932D02*
X0013086Y0091932D01*
X0013086Y0091333D02*
X0011948Y0091333D01*
X0011948Y0090735D02*
X0013086Y0090735D01*
X0013086Y0090136D02*
X0011948Y0090136D01*
X0011948Y0089538D02*
X0013086Y0089538D01*
X0013086Y0088939D02*
X0011948Y0088939D01*
X0011948Y0088341D02*
X0013086Y0088341D01*
X0013086Y0087742D02*
X0011948Y0087742D01*
X0011948Y0087144D02*
X0013086Y0087144D01*
X0013086Y0086545D02*
X0011948Y0086545D01*
X0011948Y0085947D02*
X0013086Y0085947D01*
X0023272Y0085947D02*
X0024759Y0085947D01*
X0024759Y0086545D02*
X0023272Y0086545D01*
X0023272Y0087144D02*
X0025147Y0087144D01*
X0024759Y0087742D02*
X0023272Y0087742D01*
X0023272Y0088341D02*
X0024759Y0088341D01*
X0024759Y0088939D02*
X0023272Y0088939D01*
X0023272Y0089538D02*
X0024759Y0089538D01*
X0024759Y0090136D02*
X0023272Y0090136D01*
X0023272Y0090735D02*
X0024856Y0090735D01*
X0024451Y0091333D02*
X0023272Y0091333D01*
X0023272Y0091932D02*
X0024359Y0091932D01*
X0024359Y0092530D02*
X0023272Y0092530D01*
X0023272Y0093129D02*
X0029109Y0093129D01*
X0029690Y0093129D02*
X0037828Y0093129D01*
X0037229Y0093727D02*
X0034440Y0093727D01*
X0034440Y0094326D02*
X0036631Y0094326D01*
X0036032Y0094924D02*
X0034224Y0094924D01*
X0034040Y0095523D02*
X0035434Y0095523D01*
X0034440Y0092530D02*
X0038427Y0092530D01*
X0039025Y0091932D02*
X0034440Y0091932D01*
X0034348Y0091333D02*
X0039624Y0091333D01*
X0040222Y0090735D02*
X0037266Y0090735D01*
X0037865Y0090136D02*
X0040821Y0090136D01*
X0041419Y0089538D02*
X0038382Y0089538D01*
X0038382Y0088939D02*
X0042018Y0088939D01*
X0042616Y0088341D02*
X0038382Y0088341D01*
X0038369Y0087742D02*
X0043215Y0087742D01*
X0043813Y0087144D02*
X0037770Y0087144D01*
X0038156Y0086545D02*
X0044412Y0086545D01*
X0045010Y0085947D02*
X0038382Y0085947D01*
X0038382Y0085348D02*
X0045609Y0085348D01*
X0046207Y0084750D02*
X0038382Y0084750D01*
X0038078Y0084151D02*
X0046806Y0084151D01*
X0047404Y0083553D02*
X0037479Y0083553D01*
X0036132Y0085387D02*
X0036132Y0086437D01*
X0030689Y0086437D01*
X0029400Y0085148D01*
X0030847Y0087637D02*
X0036132Y0087637D01*
X0036132Y0088687D01*
X0034997Y0090735D02*
X0033944Y0090735D01*
X0034040Y0090136D02*
X0034399Y0090136D01*
X0030847Y0087637D02*
X0029400Y0089085D01*
X0034040Y0084151D02*
X0034186Y0084151D01*
X0033999Y0083553D02*
X0034785Y0083553D01*
X0034316Y0082954D02*
X0048003Y0082954D01*
X0048601Y0082356D02*
X0034440Y0082356D01*
X0034440Y0081757D02*
X0049200Y0081757D01*
X0049798Y0081159D02*
X0029690Y0081159D01*
X0029109Y0081159D02*
X0023272Y0081159D01*
X0029400Y0077274D02*
X0035222Y0077274D01*
X0035348Y0077148D01*
X0036314Y0079363D02*
X0051594Y0079363D01*
X0052192Y0078765D02*
X0044119Y0078765D01*
X0044717Y0078166D02*
X0052791Y0078166D01*
X0050995Y0079962D02*
X0034440Y0079962D01*
X0034440Y0080560D02*
X0050397Y0080560D01*
X0058142Y0087742D02*
X0069654Y0087742D01*
X0070252Y0088341D02*
X0057543Y0088341D01*
X0056945Y0088939D02*
X0070851Y0088939D01*
X0071449Y0089538D02*
X0056346Y0089538D01*
X0055747Y0090136D02*
X0072048Y0090136D01*
X0079497Y0090136D02*
X0147098Y0090136D01*
X0147098Y0089538D02*
X0080096Y0089538D01*
X0080198Y0089436D02*
X0080198Y0089436D01*
X0080695Y0088939D02*
X0147098Y0088939D01*
X0147098Y0088341D02*
X0081293Y0088341D01*
X0081892Y0087742D02*
X0147098Y0087742D01*
X0147098Y0087144D02*
X0082490Y0087144D01*
X0083089Y0086545D02*
X0147098Y0086545D01*
X0147098Y0090735D02*
X0055149Y0090735D01*
X0054550Y0091333D02*
X0147098Y0091333D01*
X0147098Y0091932D02*
X0053952Y0091932D01*
X0053353Y0092530D02*
X0147098Y0092530D01*
X0147098Y0093129D02*
X0052755Y0093129D01*
X0052156Y0093727D02*
X0147098Y0093727D01*
X0147098Y0094326D02*
X0051558Y0094326D01*
X0050959Y0094924D02*
X0147098Y0094924D01*
X0147098Y0095523D02*
X0050361Y0095523D01*
X0049762Y0096121D02*
X0147098Y0096121D01*
X0147098Y0096720D02*
X0109902Y0096720D01*
X0109830Y0096648D02*
X0110780Y0097598D01*
X0133186Y0097598D01*
X0133948Y0098359D01*
X0134736Y0099148D01*
X0136080Y0099148D01*
X0137398Y0100466D01*
X0137398Y0102330D01*
X0136080Y0103648D01*
X0134216Y0103648D01*
X0132898Y0102330D01*
X0132898Y0100986D01*
X0132109Y0100198D01*
X0110780Y0100198D01*
X0109830Y0101148D01*
X0107966Y0101148D01*
X0106648Y0099830D01*
X0106648Y0097966D01*
X0107966Y0096648D01*
X0109830Y0096648D01*
X0110500Y0097318D02*
X0147098Y0097318D01*
X0147098Y0097917D02*
X0133505Y0097917D01*
X0134104Y0098515D02*
X0147098Y0098515D01*
X0147098Y0099114D02*
X0134702Y0099114D01*
X0136644Y0099712D02*
X0147098Y0099712D01*
X0147098Y0100311D02*
X0137243Y0100311D01*
X0137398Y0100909D02*
X0147098Y0100909D01*
X0147098Y0101508D02*
X0137398Y0101508D01*
X0137398Y0102106D02*
X0147098Y0102106D01*
X0147098Y0102705D02*
X0137022Y0102705D01*
X0136424Y0103303D02*
X0147098Y0103303D01*
X0147098Y0103902D02*
X0041982Y0103902D01*
X0042580Y0103303D02*
X0133872Y0103303D01*
X0133273Y0102705D02*
X0043179Y0102705D01*
X0043777Y0102106D02*
X0132898Y0102106D01*
X0132898Y0101508D02*
X0044376Y0101508D01*
X0044974Y0100909D02*
X0107727Y0100909D01*
X0107129Y0100311D02*
X0045573Y0100311D01*
X0046171Y0099712D02*
X0106648Y0099712D01*
X0106648Y0099114D02*
X0046770Y0099114D01*
X0047368Y0098515D02*
X0106648Y0098515D01*
X0106696Y0097917D02*
X0047967Y0097917D01*
X0048565Y0097318D02*
X0107295Y0097318D01*
X0107893Y0096720D02*
X0049164Y0096720D01*
X0041383Y0104501D02*
X0147098Y0104501D01*
X0147098Y0105099D02*
X0040785Y0105099D01*
X0040186Y0105698D02*
X0147098Y0105698D01*
X0147098Y0106296D02*
X0039588Y0106296D01*
X0038989Y0106895D02*
X0147098Y0106895D01*
X0147098Y0107493D02*
X0038391Y0107493D01*
X0037792Y0108092D02*
X0147098Y0108092D01*
X0147098Y0108690D02*
X0037194Y0108690D01*
X0036595Y0109289D02*
X0147098Y0109289D01*
X0147098Y0109887D02*
X0035997Y0109887D01*
X0033878Y0110486D02*
X0076721Y0110486D01*
X0076348Y0110859D02*
X0077109Y0110098D01*
X0121936Y0110098D01*
X0122236Y0110398D01*
X0123580Y0110398D01*
X0124898Y0111716D01*
X0124898Y0113580D01*
X0123580Y0114898D01*
X0122398Y0114898D01*
X0122398Y0116080D01*
X0121080Y0117398D01*
X0119898Y0117398D01*
X0119898Y0118580D01*
X0118580Y0119898D01*
X0117398Y0119898D01*
X0117398Y0121080D01*
X0116080Y0122398D01*
X0114216Y0122398D01*
X0112898Y0121080D01*
X0112898Y0120198D01*
X0089463Y0120198D01*
X0089814Y0120549D01*
X0089814Y0122413D01*
X0089261Y0122966D01*
X0091493Y0125198D01*
X0110645Y0125198D01*
X0111348Y0125901D01*
X0112598Y0127151D01*
X0112598Y0131916D01*
X0113648Y0132966D01*
X0113648Y0134830D01*
X0112330Y0136148D01*
X0110466Y0136148D01*
X0109148Y0134830D01*
X0109148Y0132966D01*
X0110198Y0131916D01*
X0110198Y0128145D01*
X0109651Y0127598D01*
X0105780Y0127598D01*
X0106148Y0127966D01*
X0106148Y0129830D01*
X0104830Y0131148D01*
X0102966Y0131148D01*
X0101648Y0129830D01*
X0101648Y0128848D01*
X0089651Y0128848D01*
X0088948Y0128145D01*
X0086515Y0125712D01*
X0086163Y0126064D01*
X0084299Y0126064D01*
X0082981Y0124746D01*
X0082981Y0122882D01*
X0084299Y0121564D01*
X0085314Y0121564D01*
X0085314Y0120549D01*
X0085666Y0120198D01*
X0081936Y0120198D01*
X0078948Y0123186D01*
X0078948Y0133266D01*
X0079898Y0134216D01*
X0079898Y0136080D01*
X0078580Y0137398D01*
X0076716Y0137398D01*
X0075773Y0136455D01*
X0074830Y0137398D01*
X0072966Y0137398D01*
X0072023Y0136455D01*
X0071080Y0137398D01*
X0069216Y0137398D01*
X0068273Y0136455D01*
X0067330Y0137398D01*
X0065466Y0137398D01*
X0064148Y0136080D01*
X0064148Y0134216D01*
X0065098Y0133266D01*
X0065098Y0132109D01*
X0068848Y0128359D01*
X0068848Y0118359D01*
X0076348Y0110859D01*
X0076123Y0111084D02*
X0033971Y0111084D01*
X0034040Y0111683D02*
X0075524Y0111683D01*
X0074926Y0112281D02*
X0034040Y0112281D01*
X0034040Y0112880D02*
X0074327Y0112880D01*
X0073729Y0113478D02*
X0034040Y0113478D01*
X0034040Y0114077D02*
X0073130Y0114077D01*
X0072532Y0114675D02*
X0033625Y0114675D01*
X0031941Y0116471D02*
X0070736Y0116471D01*
X0070138Y0117069D02*
X0032539Y0117069D01*
X0033977Y0117668D02*
X0069539Y0117668D01*
X0068941Y0118266D02*
X0034726Y0118266D01*
X0035147Y0118865D02*
X0068848Y0118865D01*
X0068848Y0119463D02*
X0035395Y0119463D01*
X0035448Y0120062D02*
X0068848Y0120062D01*
X0068848Y0120660D02*
X0035448Y0120660D01*
X0035218Y0121259D02*
X0068848Y0121259D01*
X0068848Y0121857D02*
X0034898Y0121857D01*
X0034299Y0122456D02*
X0068848Y0122456D01*
X0068848Y0123054D02*
X0027209Y0123054D01*
X0027209Y0122456D02*
X0030996Y0122456D01*
X0030398Y0121857D02*
X0027209Y0121857D01*
X0027209Y0121259D02*
X0030077Y0121259D01*
X0029848Y0120660D02*
X0027180Y0120660D01*
X0026922Y0120062D02*
X0029592Y0120062D01*
X0028993Y0119463D02*
X0026009Y0119463D01*
X0027796Y0118266D02*
X0023272Y0118266D01*
X0023272Y0117668D02*
X0027300Y0117668D01*
X0027300Y0117069D02*
X0023272Y0117069D01*
X0023272Y0116471D02*
X0027300Y0116471D01*
X0027300Y0115872D02*
X0023272Y0115872D01*
X0023272Y0115274D02*
X0027300Y0115274D01*
X0025174Y0114675D02*
X0023272Y0114675D01*
X0023272Y0114077D02*
X0024759Y0114077D01*
X0024759Y0113478D02*
X0023272Y0113478D01*
X0023272Y0112880D02*
X0024759Y0112880D01*
X0024759Y0112281D02*
X0023272Y0112281D01*
X0023272Y0111683D02*
X0024759Y0111683D01*
X0024828Y0111084D02*
X0023272Y0111084D01*
X0023272Y0110486D02*
X0024922Y0110486D01*
X0024759Y0109887D02*
X0023272Y0109887D01*
X0023272Y0109289D02*
X0024759Y0109289D01*
X0024759Y0108690D02*
X0023272Y0108690D01*
X0023272Y0108092D02*
X0024759Y0108092D01*
X0024759Y0107493D02*
X0023272Y0107493D01*
X0023272Y0106895D02*
X0025081Y0106895D01*
X0024759Y0106296D02*
X0023272Y0106296D01*
X0023272Y0105698D02*
X0024759Y0105698D01*
X0024759Y0105099D02*
X0023272Y0105099D01*
X0023272Y0104501D02*
X0024759Y0104501D01*
X0024759Y0103902D02*
X0023272Y0103902D01*
X0023272Y0103303D02*
X0024759Y0103303D01*
X0025015Y0102705D02*
X0023272Y0102705D01*
X0023272Y0102106D02*
X0024759Y0102106D01*
X0024759Y0101508D02*
X0023272Y0101508D01*
X0023272Y0100909D02*
X0024759Y0100909D01*
X0024759Y0100311D02*
X0023272Y0100311D01*
X0023272Y0099712D02*
X0024759Y0099712D01*
X0024987Y0099114D02*
X0023272Y0099114D01*
X0023272Y0098515D02*
X0024762Y0098515D01*
X0024759Y0097917D02*
X0023272Y0097917D01*
X0023272Y0097318D02*
X0024759Y0097318D01*
X0024759Y0096720D02*
X0023272Y0096720D01*
X0023272Y0096121D02*
X0024759Y0096121D01*
X0024759Y0095523D02*
X0023272Y0095523D01*
X0023272Y0094924D02*
X0024575Y0094924D01*
X0024359Y0094326D02*
X0023272Y0094326D01*
X0023272Y0093727D02*
X0024359Y0093727D01*
X0034256Y0079363D02*
X0034381Y0079363D01*
X0035348Y0073548D02*
X0035137Y0073337D01*
X0029400Y0073337D01*
X0033977Y0071582D02*
X0034131Y0071582D01*
X0034425Y0067991D02*
X0037481Y0067991D01*
X0037481Y0067393D02*
X0034153Y0067393D01*
X0034040Y0066794D02*
X0036965Y0066794D01*
X0036367Y0066196D02*
X0034040Y0066196D01*
X0034040Y0065597D02*
X0035768Y0065597D01*
X0038465Y0063203D02*
X0069231Y0063203D01*
X0069231Y0062605D02*
X0037867Y0062605D01*
X0037268Y0062006D02*
X0069231Y0062006D01*
X0069622Y0061408D02*
X0034040Y0061408D01*
X0034040Y0060809D02*
X0070221Y0060809D01*
X0069370Y0063802D02*
X0039064Y0063802D01*
X0039662Y0064400D02*
X0069968Y0064400D01*
X0071564Y0064999D02*
X0040261Y0064999D01*
X0040859Y0065597D02*
X0071564Y0065597D01*
X0071764Y0066196D02*
X0041081Y0066196D01*
X0041081Y0066794D02*
X0072362Y0066794D01*
X0072098Y0057218D02*
X0034440Y0057218D01*
X0034440Y0056620D02*
X0072098Y0056620D01*
X0072098Y0056021D02*
X0034382Y0056021D01*
X0033993Y0055423D02*
X0072098Y0055423D01*
X0078515Y0052430D02*
X0093848Y0052430D01*
X0093848Y0051832D02*
X0079504Y0051832D01*
X0079849Y0051233D02*
X0093848Y0051233D01*
X0093848Y0050634D02*
X0080195Y0050634D01*
X0080404Y0050036D02*
X0093848Y0050036D01*
X0096448Y0046445D02*
X0097012Y0046445D01*
X0096448Y0045846D02*
X0097610Y0045846D01*
X0098209Y0045248D02*
X0096448Y0045248D01*
X0096448Y0044649D02*
X0098807Y0044649D01*
X0099406Y0044051D02*
X0096833Y0044051D01*
X0097431Y0043452D02*
X0100004Y0043452D01*
X0100603Y0042854D02*
X0098030Y0042854D01*
X0098628Y0042255D02*
X0101201Y0042255D01*
X0101800Y0041657D02*
X0099227Y0041657D01*
X0099825Y0041058D02*
X0102398Y0041058D01*
X0102997Y0040460D02*
X0100424Y0040460D01*
X0102366Y0039861D02*
X0103595Y0039861D01*
X0104194Y0039263D02*
X0102964Y0039263D01*
X0103563Y0038664D02*
X0104232Y0038664D01*
X0104148Y0038066D02*
X0103648Y0038066D01*
X0103648Y0037467D02*
X0104148Y0037467D01*
X0104148Y0036869D02*
X0103648Y0036869D01*
X0103202Y0036270D02*
X0104593Y0036270D01*
X0105192Y0035672D02*
X0102604Y0035672D01*
X0100192Y0035672D02*
X0011948Y0035672D01*
X0011948Y0036270D02*
X0099593Y0036270D01*
X0098948Y0057218D02*
X0121145Y0057218D01*
X0119390Y0057817D02*
X0098948Y0057817D01*
X0098948Y0058415D02*
X0118792Y0058415D01*
X0118193Y0059014D02*
X0098948Y0059014D01*
X0098948Y0059612D02*
X0117595Y0059612D01*
X0116996Y0060211D02*
X0098948Y0060211D01*
X0098948Y0060809D02*
X0116398Y0060809D01*
X0116348Y0061408D02*
X0098948Y0061408D01*
X0098948Y0062006D02*
X0116348Y0062006D01*
X0116348Y0062605D02*
X0098948Y0062605D01*
X0098948Y0063203D02*
X0116348Y0063203D01*
X0116348Y0063802D02*
X0098948Y0063802D01*
X0098948Y0064400D02*
X0116348Y0064400D01*
X0116348Y0064999D02*
X0098948Y0064999D01*
X0098948Y0065597D02*
X0116348Y0065597D01*
X0116348Y0066196D02*
X0098948Y0066196D01*
X0098948Y0066794D02*
X0116348Y0066794D01*
X0116348Y0067393D02*
X0098948Y0067393D01*
X0098948Y0067991D02*
X0116348Y0067991D01*
X0116348Y0068590D02*
X0098948Y0068590D01*
X0098948Y0069188D02*
X0116348Y0069188D01*
X0116348Y0069787D02*
X0098948Y0069787D01*
X0098948Y0070385D02*
X0116348Y0070385D01*
X0116348Y0070984D02*
X0098948Y0070984D01*
X0098948Y0071582D02*
X0116348Y0071582D01*
X0116348Y0072181D02*
X0100363Y0072181D01*
X0100961Y0072779D02*
X0116348Y0072779D01*
X0116348Y0073378D02*
X0101148Y0073378D01*
X0101148Y0073976D02*
X0116348Y0073976D01*
X0116348Y0074575D02*
X0101148Y0074575D01*
X0100804Y0075173D02*
X0116348Y0075173D01*
X0116348Y0075772D02*
X0100205Y0075772D01*
X0100151Y0076969D02*
X0116348Y0076969D01*
X0116348Y0077568D02*
X0100749Y0077568D01*
X0101148Y0078166D02*
X0116348Y0078166D01*
X0116348Y0078765D02*
X0101148Y0078765D01*
X0101148Y0079363D02*
X0116348Y0079363D01*
X0115995Y0079962D02*
X0101016Y0079962D01*
X0100417Y0080560D02*
X0115397Y0080560D01*
X0116348Y0076370D02*
X0097107Y0076370D01*
X0097398Y0075772D02*
X0097590Y0075772D01*
X0097644Y0076969D02*
X0096508Y0076969D01*
X0093787Y0076969D02*
X0090258Y0076969D01*
X0090857Y0076370D02*
X0093189Y0076370D01*
X0092898Y0075772D02*
X0091148Y0075772D01*
X0091148Y0075173D02*
X0092898Y0075173D01*
X0092898Y0074575D02*
X0091148Y0074575D01*
X0090908Y0073976D02*
X0093137Y0073976D01*
X0093848Y0070984D02*
X0041081Y0070984D01*
X0041081Y0071582D02*
X0041637Y0071582D01*
X0041081Y0070385D02*
X0093848Y0070385D01*
X0093848Y0069787D02*
X0041081Y0069787D01*
X0041081Y0069188D02*
X0093848Y0069188D01*
X0093848Y0068590D02*
X0041081Y0068590D01*
X0041081Y0067991D02*
X0093848Y0067991D01*
X0093848Y0067393D02*
X0041081Y0067393D01*
X0030847Y0064015D02*
X0029400Y0065463D01*
X0029109Y0057218D02*
X0029690Y0057218D01*
X0029690Y0056620D02*
X0029109Y0056620D01*
X0029109Y0056021D02*
X0029690Y0056021D01*
X0029690Y0055423D02*
X0029109Y0055423D01*
X0020448Y0057817D02*
X0019848Y0057817D01*
X0019848Y0058415D02*
X0020448Y0058415D01*
X0020448Y0059014D02*
X0019848Y0059014D01*
X0019848Y0059612D02*
X0020448Y0059612D01*
X0020448Y0060211D02*
X0019848Y0060211D01*
X0019848Y0060809D02*
X0020448Y0060809D01*
X0020448Y0061408D02*
X0019848Y0061408D01*
X0019848Y0062006D02*
X0020448Y0062006D01*
X0020448Y0062605D02*
X0019848Y0062605D01*
X0019848Y0063203D02*
X0020448Y0063203D01*
X0020448Y0063802D02*
X0019848Y0063802D01*
X0019848Y0064400D02*
X0020448Y0064400D01*
X0020448Y0064999D02*
X0019848Y0064999D01*
X0019848Y0065597D02*
X0020448Y0065597D01*
X0020448Y0066196D02*
X0019848Y0066196D01*
X0019848Y0066794D02*
X0020448Y0066794D01*
X0020448Y0067393D02*
X0019848Y0067393D01*
X0019848Y0067991D02*
X0020448Y0067991D01*
X0020448Y0068590D02*
X0019848Y0068590D01*
X0019848Y0069188D02*
X0020448Y0069188D01*
X0061508Y0076969D02*
X0087537Y0076969D01*
X0110666Y0100311D02*
X0132222Y0100311D01*
X0132821Y0100909D02*
X0110068Y0100909D01*
X0122398Y0115274D02*
X0147098Y0115274D01*
X0147098Y0115872D02*
X0122398Y0115872D01*
X0122006Y0116471D02*
X0147098Y0116471D01*
X0147098Y0117069D02*
X0121408Y0117069D01*
X0119898Y0117668D02*
X0147098Y0117668D01*
X0147098Y0118266D02*
X0140141Y0118266D01*
X0139102Y0117836D02*
X0141789Y0118949D01*
X0143846Y0121006D01*
X0144959Y0123693D01*
X0144959Y0126602D01*
X0143846Y0129289D01*
X0141789Y0131346D01*
X0139102Y0132459D01*
X0136193Y0132459D01*
X0133506Y0131346D01*
X0131449Y0129289D01*
X0130336Y0126602D01*
X0130336Y0123693D01*
X0131449Y0121006D01*
X0133506Y0118949D01*
X0136193Y0117836D01*
X0139102Y0117836D01*
X0141586Y0118865D02*
X0147098Y0118865D01*
X0147098Y0119463D02*
X0142304Y0119463D01*
X0142902Y0120062D02*
X0147098Y0120062D01*
X0147098Y0120660D02*
X0143501Y0120660D01*
X0143951Y0121259D02*
X0147098Y0121259D01*
X0147098Y0121857D02*
X0144199Y0121857D01*
X0144447Y0122456D02*
X0147098Y0122456D01*
X0147098Y0123054D02*
X0144695Y0123054D01*
X0144943Y0123653D02*
X0147098Y0123653D01*
X0147098Y0124251D02*
X0144959Y0124251D01*
X0144959Y0124850D02*
X0147098Y0124850D01*
X0147098Y0125448D02*
X0144959Y0125448D01*
X0144959Y0126047D02*
X0147098Y0126047D01*
X0147098Y0126645D02*
X0144941Y0126645D01*
X0144694Y0127244D02*
X0147098Y0127244D01*
X0147098Y0127842D02*
X0144446Y0127842D01*
X0144198Y0128441D02*
X0147098Y0128441D01*
X0147098Y0129039D02*
X0143950Y0129039D01*
X0143498Y0129638D02*
X0147098Y0129638D01*
X0147098Y0130237D02*
X0142899Y0130237D01*
X0142301Y0130835D02*
X0147098Y0130835D01*
X0147098Y0131434D02*
X0141579Y0131434D01*
X0140134Y0132032D02*
X0147098Y0132032D01*
X0147098Y0132631D02*
X0113313Y0132631D01*
X0113648Y0133229D02*
X0147098Y0133229D01*
X0147098Y0133828D02*
X0113648Y0133828D01*
X0113648Y0134426D02*
X0147098Y0134426D01*
X0147098Y0135025D02*
X0113453Y0135025D01*
X0112854Y0135623D02*
X0147098Y0135623D01*
X0147098Y0136222D02*
X0088555Y0136222D01*
X0088776Y0136001D02*
X0087458Y0137319D01*
X0085594Y0137319D01*
X0084276Y0136001D01*
X0084276Y0134137D01*
X0085326Y0133087D01*
X0085326Y0130773D01*
X0084651Y0130098D01*
X0082680Y0130098D01*
X0082280Y0130498D01*
X0080416Y0130498D01*
X0079098Y0129180D01*
X0079098Y0127316D01*
X0080416Y0125998D01*
X0082280Y0125998D01*
X0083598Y0127316D01*
X0083598Y0127698D01*
X0085645Y0127698D01*
X0086348Y0128401D01*
X0087726Y0129779D01*
X0087726Y0133087D01*
X0088776Y0134137D01*
X0088776Y0136001D01*
X0088776Y0135623D02*
X0109941Y0135623D01*
X0109343Y0135025D02*
X0088776Y0135025D01*
X0088776Y0134426D02*
X0109148Y0134426D01*
X0109148Y0133828D02*
X0088466Y0133828D01*
X0087868Y0133229D02*
X0109148Y0133229D01*
X0109483Y0132631D02*
X0087726Y0132631D01*
X0087726Y0132032D02*
X0110081Y0132032D01*
X0110198Y0131434D02*
X0087726Y0131434D01*
X0087726Y0130835D02*
X0102653Y0130835D01*
X0102055Y0130237D02*
X0087726Y0130237D01*
X0087585Y0129638D02*
X0101648Y0129638D01*
X0101648Y0129039D02*
X0086987Y0129039D01*
X0086388Y0128441D02*
X0089244Y0128441D01*
X0088645Y0127842D02*
X0085790Y0127842D01*
X0085148Y0128898D02*
X0086526Y0130276D01*
X0086526Y0135069D01*
X0086348Y0134891D01*
X0085183Y0133229D02*
X0078948Y0133229D01*
X0078948Y0132631D02*
X0085326Y0132631D01*
X0085326Y0132032D02*
X0078948Y0132032D01*
X0078948Y0131434D02*
X0085326Y0131434D01*
X0085326Y0130835D02*
X0078948Y0130835D01*
X0078948Y0130237D02*
X0080155Y0130237D01*
X0079556Y0129638D02*
X0078948Y0129638D01*
X0078948Y0129039D02*
X0079098Y0129039D01*
X0079098Y0128441D02*
X0078948Y0128441D01*
X0078948Y0127842D02*
X0079098Y0127842D01*
X0079169Y0127244D02*
X0078948Y0127244D01*
X0078948Y0126645D02*
X0079768Y0126645D01*
X0080366Y0126047D02*
X0078948Y0126047D01*
X0078948Y0125448D02*
X0083683Y0125448D01*
X0083084Y0124850D02*
X0078948Y0124850D01*
X0078948Y0124251D02*
X0082981Y0124251D01*
X0082981Y0123653D02*
X0078948Y0123653D01*
X0079079Y0123054D02*
X0082981Y0123054D01*
X0083407Y0122456D02*
X0079678Y0122456D01*
X0080276Y0121857D02*
X0084006Y0121857D01*
X0085314Y0121259D02*
X0080875Y0121259D01*
X0081473Y0120660D02*
X0085314Y0120660D01*
X0086822Y0122223D02*
X0087564Y0121481D01*
X0086822Y0122223D02*
X0090996Y0126398D01*
X0110148Y0126398D01*
X0111398Y0127648D01*
X0111398Y0133898D01*
X0112714Y0132032D02*
X0135161Y0132032D01*
X0133716Y0131434D02*
X0112598Y0131434D01*
X0112598Y0130835D02*
X0132995Y0130835D01*
X0132396Y0130237D02*
X0112598Y0130237D01*
X0112598Y0129638D02*
X0131798Y0129638D01*
X0131345Y0129039D02*
X0112598Y0129039D01*
X0112598Y0128441D02*
X0131098Y0128441D01*
X0130850Y0127842D02*
X0112598Y0127842D01*
X0112598Y0127244D02*
X0130602Y0127244D01*
X0130354Y0126645D02*
X0112092Y0126645D01*
X0111494Y0126047D02*
X0130336Y0126047D01*
X0130336Y0125448D02*
X0110895Y0125448D01*
X0109895Y0127842D02*
X0106024Y0127842D01*
X0106148Y0128441D02*
X0110198Y0128441D01*
X0110198Y0129039D02*
X0106148Y0129039D01*
X0106148Y0129638D02*
X0110198Y0129638D01*
X0110198Y0130237D02*
X0105741Y0130237D01*
X0105142Y0130835D02*
X0110198Y0130835D01*
X0103898Y0128898D02*
X0102648Y0127648D01*
X0090148Y0127648D01*
X0086314Y0123814D01*
X0085231Y0123814D01*
X0085973Y0123072D01*
X0086180Y0126047D02*
X0086850Y0126047D01*
X0087448Y0126645D02*
X0082927Y0126645D01*
X0082329Y0126047D02*
X0084281Y0126047D01*
X0083526Y0127244D02*
X0088047Y0127244D01*
X0085148Y0128898D02*
X0081998Y0128898D01*
X0081348Y0128248D01*
X0082541Y0130237D02*
X0084789Y0130237D01*
X0084585Y0133828D02*
X0079510Y0133828D01*
X0079898Y0134426D02*
X0084276Y0134426D01*
X0084276Y0135025D02*
X0079898Y0135025D01*
X0079898Y0135623D02*
X0084276Y0135623D01*
X0084496Y0136222D02*
X0079756Y0136222D01*
X0079157Y0136820D02*
X0085095Y0136820D01*
X0087956Y0136820D02*
X0147098Y0136820D01*
X0147098Y0137419D02*
X0011948Y0137419D01*
X0011948Y0138017D02*
X0147098Y0138017D01*
X0147098Y0138616D02*
X0011948Y0138616D01*
X0011948Y0139214D02*
X0147098Y0139214D01*
X0147098Y0139813D02*
X0011948Y0139813D01*
X0011948Y0140411D02*
X0147098Y0140411D01*
X0147098Y0141010D02*
X0011948Y0141010D01*
X0011948Y0141608D02*
X0147098Y0141608D01*
X0147098Y0142207D02*
X0011948Y0142207D01*
X0011948Y0142805D02*
X0147098Y0142805D01*
X0147098Y0143404D02*
X0011948Y0143404D01*
X0011948Y0144002D02*
X0147098Y0144002D01*
X0147098Y0144601D02*
X0011948Y0144601D01*
X0011948Y0145199D02*
X0147098Y0145199D01*
X0147098Y0145798D02*
X0011948Y0145798D01*
X0011948Y0146396D02*
X0147098Y0146396D01*
X0147098Y0146995D02*
X0011948Y0146995D01*
X0011948Y0147593D02*
X0147098Y0147593D01*
X0147098Y0148192D02*
X0019962Y0148192D01*
X0021406Y0148790D02*
X0147098Y0148790D01*
X0147098Y0149389D02*
X0022229Y0149389D01*
X0022828Y0149987D02*
X0147098Y0149987D01*
X0147098Y0150586D02*
X0023426Y0150586D01*
X0023920Y0151184D02*
X0147098Y0151184D01*
X0147098Y0151783D02*
X0024168Y0151783D01*
X0024416Y0152381D02*
X0147098Y0152381D01*
X0147098Y0152980D02*
X0024664Y0152980D01*
X0024912Y0153578D02*
X0147098Y0153578D01*
X0147098Y0154177D02*
X0024959Y0154177D01*
X0024959Y0154775D02*
X0147098Y0154775D01*
X0147098Y0155374D02*
X0024959Y0155374D01*
X0024959Y0155972D02*
X0147098Y0155972D01*
X0147098Y0156571D02*
X0024959Y0156571D01*
X0024724Y0157170D02*
X0147098Y0157170D01*
X0147098Y0157768D02*
X0024476Y0157768D01*
X0024229Y0158367D02*
X0147098Y0158367D01*
X0147098Y0158965D02*
X0023981Y0158965D01*
X0023572Y0159564D02*
X0147098Y0159564D01*
X0147098Y0160162D02*
X0022974Y0160162D01*
X0022375Y0160761D02*
X0147098Y0160761D01*
X0147098Y0161359D02*
X0021759Y0161359D01*
X0020314Y0161958D02*
X0147098Y0161958D01*
X0147098Y0162556D02*
X0011948Y0162556D01*
X0011948Y0161958D02*
X0014982Y0161958D01*
X0013537Y0161359D02*
X0011948Y0161359D01*
X0011948Y0160761D02*
X0012920Y0160761D01*
X0012322Y0160162D02*
X0011948Y0160162D01*
X0011948Y0163155D02*
X0147098Y0163155D01*
X0130336Y0124850D02*
X0091145Y0124850D01*
X0090547Y0124251D02*
X0130336Y0124251D01*
X0130353Y0123653D02*
X0089948Y0123653D01*
X0089350Y0123054D02*
X0130600Y0123054D01*
X0130848Y0122456D02*
X0089771Y0122456D01*
X0089814Y0121857D02*
X0113675Y0121857D01*
X0113077Y0121259D02*
X0089814Y0121259D01*
X0089814Y0120660D02*
X0112898Y0120660D01*
X0116620Y0121857D02*
X0131096Y0121857D01*
X0131344Y0121259D02*
X0117218Y0121259D01*
X0117398Y0120660D02*
X0131794Y0120660D01*
X0132393Y0120062D02*
X0117398Y0120062D01*
X0119014Y0119463D02*
X0132991Y0119463D01*
X0133709Y0118865D02*
X0119612Y0118865D01*
X0119898Y0118266D02*
X0135154Y0118266D01*
X0124898Y0113478D02*
X0147098Y0113478D01*
X0147098Y0112880D02*
X0124898Y0112880D01*
X0124898Y0112281D02*
X0147098Y0112281D01*
X0147098Y0111683D02*
X0124865Y0111683D01*
X0124266Y0111084D02*
X0147098Y0111084D01*
X0147098Y0110486D02*
X0123668Y0110486D01*
X0124401Y0114077D02*
X0147098Y0114077D01*
X0147098Y0114675D02*
X0123802Y0114675D01*
X0122013Y0076370D02*
X0147098Y0076370D01*
X0147098Y0075772D02*
X0123955Y0075772D01*
X0124554Y0075173D02*
X0147098Y0075173D01*
X0147098Y0074575D02*
X0124898Y0074575D01*
X0124898Y0073976D02*
X0147098Y0073976D01*
X0147098Y0073378D02*
X0124898Y0073378D01*
X0124711Y0072779D02*
X0147098Y0072779D01*
X0147098Y0072181D02*
X0124113Y0072181D01*
X0071933Y0115274D02*
X0031500Y0115274D01*
X0031500Y0115872D02*
X0071335Y0115872D01*
X0068848Y0123653D02*
X0027209Y0123653D01*
X0027209Y0124251D02*
X0068848Y0124251D01*
X0068848Y0124850D02*
X0027209Y0124850D01*
X0027209Y0125448D02*
X0068848Y0125448D01*
X0068848Y0126047D02*
X0027209Y0126047D01*
X0027209Y0126645D02*
X0068848Y0126645D01*
X0068848Y0127244D02*
X0027209Y0127244D01*
X0027209Y0127842D02*
X0068848Y0127842D01*
X0068766Y0128441D02*
X0027209Y0128441D01*
X0027209Y0129039D02*
X0068167Y0129039D01*
X0067569Y0129638D02*
X0027158Y0129638D01*
X0028395Y0118865D02*
X0023272Y0118865D01*
X0011948Y0131434D02*
X0065773Y0131434D01*
X0065175Y0132032D02*
X0011948Y0132032D01*
X0011948Y0132631D02*
X0065098Y0132631D01*
X0065098Y0133229D02*
X0011948Y0133229D01*
X0011948Y0133828D02*
X0064536Y0133828D01*
X0064148Y0134426D02*
X0011948Y0134426D01*
X0011948Y0135025D02*
X0064148Y0135025D01*
X0064148Y0135623D02*
X0011948Y0135623D01*
X0011948Y0136222D02*
X0064290Y0136222D01*
X0064888Y0136820D02*
X0011948Y0136820D01*
X0011948Y0148192D02*
X0015334Y0148192D01*
X0013889Y0148790D02*
X0011948Y0148790D01*
X0011948Y0149389D02*
X0013066Y0149389D01*
X0012467Y0149987D02*
X0011948Y0149987D01*
X0067907Y0136820D02*
X0068638Y0136820D01*
X0071657Y0136820D02*
X0072388Y0136820D01*
X0075407Y0136820D02*
X0076138Y0136820D01*
D14*
X0077648Y0135148D03*
X0073898Y0135148D03*
X0070148Y0135148D03*
X0066398Y0135148D03*
X0062648Y0130148D03*
X0081348Y0128248D03*
X0085231Y0123814D03*
X0087564Y0121481D03*
X0086526Y0135069D03*
X0103898Y0128898D03*
X0111398Y0133898D03*
X0115148Y0120148D03*
X0117648Y0117648D03*
X0120148Y0115148D03*
X0122648Y0112648D03*
X0135148Y0101398D03*
X0122648Y0073898D03*
X0122648Y0058898D03*
X0106398Y0037648D03*
X0101398Y0037648D03*
X0078898Y0058898D03*
X0073814Y0065064D03*
X0071481Y0062731D03*
X0060148Y0075148D03*
X0053898Y0065148D03*
X0042825Y0073576D03*
X0042825Y0076876D03*
X0035348Y0077148D03*
X0035348Y0073548D03*
X0036132Y0085387D03*
X0036132Y0088687D03*
X0053898Y0096398D03*
X0065148Y0108898D03*
X0067648Y0090148D03*
X0075148Y0082648D03*
X0088898Y0075148D03*
X0095148Y0075148D03*
X0098898Y0073898D03*
X0098898Y0078898D03*
X0108898Y0098898D03*
X0062648Y0045148D03*
X0070231Y0041314D03*
X0072564Y0038981D03*
X0045148Y0045148D03*
D15*
X0029400Y0112707D02*
X0029400Y0116900D01*
X0032648Y0120148D01*
D16*
X0032648Y0120148D03*
D17*
X0035276Y0108770D02*
X0029400Y0108770D01*
X0029400Y0104833D02*
X0035463Y0104833D01*
X0056398Y0083898D01*
X0071398Y0083898D01*
X0073898Y0086398D01*
X0077648Y0086398D01*
X0081398Y0082648D01*
X0115148Y0082648D01*
X0117648Y0080148D01*
X0117648Y0061398D01*
X0120148Y0058898D01*
X0122648Y0058898D01*
X0122648Y0073898D02*
X0120148Y0076398D01*
X0120148Y0082648D01*
X0117648Y0085148D01*
X0082648Y0085148D01*
X0078898Y0088898D01*
X0072648Y0088898D01*
X0070148Y0086398D01*
X0057648Y0086398D01*
X0035276Y0108770D01*
X0035650Y0100896D02*
X0029400Y0100896D01*
X0029400Y0096959D02*
X0035837Y0096959D01*
X0053898Y0078898D01*
X0098898Y0078898D01*
X0095148Y0075148D02*
X0095148Y0043898D01*
X0101398Y0037648D01*
X0106398Y0037648D02*
X0106398Y0038898D01*
X0097648Y0047648D01*
X0097648Y0072648D01*
X0098898Y0073898D01*
X0088898Y0075148D02*
X0060148Y0075148D01*
X0055148Y0081398D02*
X0035650Y0100896D01*
X0055148Y0081398D02*
X0073898Y0081398D01*
X0075148Y0082648D01*
X0077648Y0111398D02*
X0121398Y0111398D01*
X0122648Y0112648D01*
X0120148Y0115148D02*
X0118898Y0113898D01*
X0078898Y0113898D01*
X0072648Y0120148D01*
X0072648Y0130148D01*
X0070148Y0132648D01*
X0070148Y0135148D01*
X0066398Y0135148D02*
X0066398Y0132648D01*
X0070148Y0128898D01*
X0070148Y0118898D01*
X0077648Y0111398D01*
X0080148Y0116398D02*
X0075148Y0121398D01*
X0075148Y0131398D01*
X0073898Y0132648D01*
X0073898Y0135148D01*
X0077648Y0135148D02*
X0077648Y0122648D01*
X0081398Y0118898D01*
X0113898Y0118898D01*
X0115148Y0120148D01*
X0117648Y0117648D02*
X0116398Y0116398D01*
X0080148Y0116398D01*
X0108898Y0098898D02*
X0132648Y0098898D01*
X0135148Y0101398D01*
M02*
