G75*
%MOIN*%
%OFA0B0*%
%FSLAX25Y25*%
%IPPOS*%
%LPD*%
%AMOC8*
5,1,8,0,0,1.08239X$1,22.5*
%
%ADD10C,0.11524*%
%ADD11R,0.07980X0.02862*%
%ADD12C,0.00500*%
%ADD13R,0.03000X0.05500*%
%ADD14C,0.03200*%
%ADD15C,0.04300*%
D10*
X0017648Y0015148D03*
X0137648Y0125148D03*
X0017648Y0155148D03*
D11*
X0029400Y0112707D03*
X0029400Y0108770D03*
X0029400Y0104833D03*
X0029400Y0100896D03*
X0029400Y0096959D03*
X0029400Y0093022D03*
X0029400Y0089085D03*
X0029400Y0085148D03*
X0029400Y0081211D03*
X0029400Y0077274D03*
X0029400Y0073337D03*
X0029400Y0069400D03*
X0029400Y0065463D03*
X0029400Y0061526D03*
X0029400Y0057589D03*
D12*
X0021722Y0057491D02*
X0014636Y0057491D01*
X0014636Y0056993D02*
X0021722Y0056993D01*
X0021722Y0056494D02*
X0014636Y0056494D01*
X0014636Y0055996D02*
X0021722Y0055996D01*
X0021722Y0055497D02*
X0014636Y0055497D01*
X0014636Y0054999D02*
X0021722Y0054999D01*
X0021722Y0054500D02*
X0014636Y0054500D01*
X0014636Y0054002D02*
X0021722Y0054002D01*
X0021722Y0053503D02*
X0014636Y0053503D01*
X0014636Y0053005D02*
X0021722Y0053005D01*
X0021722Y0052506D02*
X0014636Y0052506D01*
X0014636Y0052008D02*
X0021722Y0052008D01*
X0021722Y0051509D02*
X0014636Y0051509D01*
X0014636Y0051011D02*
X0021722Y0051011D01*
X0021722Y0050512D02*
X0014636Y0050512D01*
X0014636Y0050014D02*
X0021722Y0050014D01*
X0021722Y0049515D02*
X0014636Y0049515D01*
X0014636Y0049017D02*
X0025659Y0049017D01*
X0025659Y0049321D02*
X0021722Y0049321D01*
X0021722Y0120974D01*
X0025659Y0120974D01*
X0025659Y0129242D01*
X0014636Y0129242D01*
X0014636Y0041053D01*
X0025659Y0041053D01*
X0025659Y0049321D01*
X0025659Y0048518D02*
X0014636Y0048518D01*
X0014636Y0048020D02*
X0025659Y0048020D01*
X0025659Y0047521D02*
X0014636Y0047521D01*
X0014636Y0047023D02*
X0025659Y0047023D01*
X0025659Y0046524D02*
X0014636Y0046524D01*
X0014636Y0046026D02*
X0025659Y0046026D01*
X0025659Y0045527D02*
X0014636Y0045527D01*
X0014636Y0045029D02*
X0025659Y0045029D01*
X0025659Y0044530D02*
X0014636Y0044530D01*
X0014636Y0044032D02*
X0025659Y0044032D01*
X0025659Y0043533D02*
X0014636Y0043533D01*
X0014636Y0043034D02*
X0025659Y0043034D01*
X0025659Y0042536D02*
X0014636Y0042536D01*
X0014636Y0042037D02*
X0025659Y0042037D01*
X0025659Y0041539D02*
X0014636Y0041539D01*
X0014636Y0057990D02*
X0021722Y0057990D01*
X0021722Y0058488D02*
X0014636Y0058488D01*
X0014636Y0058987D02*
X0021722Y0058987D01*
X0021722Y0059485D02*
X0014636Y0059485D01*
X0014636Y0059984D02*
X0021722Y0059984D01*
X0021722Y0060482D02*
X0014636Y0060482D01*
X0014636Y0060981D02*
X0021722Y0060981D01*
X0021722Y0061479D02*
X0014636Y0061479D01*
X0014636Y0061978D02*
X0021722Y0061978D01*
X0021722Y0062476D02*
X0014636Y0062476D01*
X0014636Y0062975D02*
X0021722Y0062975D01*
X0021722Y0063473D02*
X0014636Y0063473D01*
X0014636Y0063972D02*
X0021722Y0063972D01*
X0021722Y0064470D02*
X0014636Y0064470D01*
X0014636Y0064969D02*
X0021722Y0064969D01*
X0021722Y0065468D02*
X0014636Y0065468D01*
X0014636Y0065966D02*
X0021722Y0065966D01*
X0021722Y0066465D02*
X0014636Y0066465D01*
X0014636Y0066963D02*
X0021722Y0066963D01*
X0021722Y0067462D02*
X0014636Y0067462D01*
X0014636Y0067960D02*
X0021722Y0067960D01*
X0021722Y0068459D02*
X0014636Y0068459D01*
X0014636Y0068957D02*
X0021722Y0068957D01*
X0021722Y0069456D02*
X0014636Y0069456D01*
X0014636Y0069954D02*
X0021722Y0069954D01*
X0021722Y0070453D02*
X0014636Y0070453D01*
X0014636Y0070951D02*
X0021722Y0070951D01*
X0021722Y0071450D02*
X0014636Y0071450D01*
X0014636Y0071948D02*
X0021722Y0071948D01*
X0021722Y0072447D02*
X0014636Y0072447D01*
X0014636Y0072945D02*
X0021722Y0072945D01*
X0021722Y0073444D02*
X0014636Y0073444D01*
X0014636Y0073942D02*
X0021722Y0073942D01*
X0021722Y0074441D02*
X0014636Y0074441D01*
X0014636Y0074939D02*
X0021722Y0074939D01*
X0021722Y0075438D02*
X0014636Y0075438D01*
X0014636Y0075936D02*
X0021722Y0075936D01*
X0021722Y0076435D02*
X0014636Y0076435D01*
X0014636Y0076933D02*
X0021722Y0076933D01*
X0021722Y0077432D02*
X0014636Y0077432D01*
X0014636Y0077930D02*
X0021722Y0077930D01*
X0021722Y0078429D02*
X0014636Y0078429D01*
X0014636Y0078927D02*
X0021722Y0078927D01*
X0021722Y0079426D02*
X0014636Y0079426D01*
X0014636Y0079924D02*
X0021722Y0079924D01*
X0021722Y0080423D02*
X0014636Y0080423D01*
X0014636Y0080921D02*
X0021722Y0080921D01*
X0021722Y0081420D02*
X0014636Y0081420D01*
X0014636Y0081918D02*
X0021722Y0081918D01*
X0021722Y0082417D02*
X0014636Y0082417D01*
X0014636Y0082915D02*
X0021722Y0082915D01*
X0021722Y0083414D02*
X0014636Y0083414D01*
X0014636Y0083912D02*
X0021722Y0083912D01*
X0021722Y0084411D02*
X0014636Y0084411D01*
X0014636Y0084909D02*
X0021722Y0084909D01*
X0021722Y0085408D02*
X0014636Y0085408D01*
X0014636Y0085906D02*
X0021722Y0085906D01*
X0021722Y0086405D02*
X0014636Y0086405D01*
X0014636Y0086903D02*
X0021722Y0086903D01*
X0021722Y0087402D02*
X0014636Y0087402D01*
X0014636Y0087901D02*
X0021722Y0087901D01*
X0021722Y0088399D02*
X0014636Y0088399D01*
X0014636Y0088898D02*
X0021722Y0088898D01*
X0021722Y0089396D02*
X0014636Y0089396D01*
X0014636Y0089895D02*
X0021722Y0089895D01*
X0021722Y0090393D02*
X0014636Y0090393D01*
X0014636Y0090892D02*
X0021722Y0090892D01*
X0021722Y0091390D02*
X0014636Y0091390D01*
X0014636Y0091889D02*
X0021722Y0091889D01*
X0021722Y0092387D02*
X0014636Y0092387D01*
X0014636Y0092886D02*
X0021722Y0092886D01*
X0021722Y0093384D02*
X0014636Y0093384D01*
X0014636Y0093883D02*
X0021722Y0093883D01*
X0021722Y0094381D02*
X0014636Y0094381D01*
X0014636Y0094880D02*
X0021722Y0094880D01*
X0021722Y0095378D02*
X0014636Y0095378D01*
X0014636Y0095877D02*
X0021722Y0095877D01*
X0021722Y0096375D02*
X0014636Y0096375D01*
X0014636Y0096874D02*
X0021722Y0096874D01*
X0021722Y0097372D02*
X0014636Y0097372D01*
X0014636Y0097871D02*
X0021722Y0097871D01*
X0021722Y0098369D02*
X0014636Y0098369D01*
X0014636Y0098868D02*
X0021722Y0098868D01*
X0021722Y0099366D02*
X0014636Y0099366D01*
X0014636Y0099865D02*
X0021722Y0099865D01*
X0021722Y0100363D02*
X0014636Y0100363D01*
X0014636Y0100862D02*
X0021722Y0100862D01*
X0021722Y0101360D02*
X0014636Y0101360D01*
X0014636Y0101859D02*
X0021722Y0101859D01*
X0021722Y0102357D02*
X0014636Y0102357D01*
X0014636Y0102856D02*
X0021722Y0102856D01*
X0021722Y0103354D02*
X0014636Y0103354D01*
X0014636Y0103853D02*
X0021722Y0103853D01*
X0021722Y0104351D02*
X0014636Y0104351D01*
X0014636Y0104850D02*
X0021722Y0104850D01*
X0021722Y0105348D02*
X0014636Y0105348D01*
X0014636Y0105847D02*
X0021722Y0105847D01*
X0021722Y0106345D02*
X0014636Y0106345D01*
X0014636Y0106844D02*
X0021722Y0106844D01*
X0021722Y0107342D02*
X0014636Y0107342D01*
X0014636Y0107841D02*
X0021722Y0107841D01*
X0021722Y0108339D02*
X0014636Y0108339D01*
X0014636Y0108838D02*
X0021722Y0108838D01*
X0021722Y0109337D02*
X0014636Y0109337D01*
X0014636Y0109835D02*
X0021722Y0109835D01*
X0021722Y0110334D02*
X0014636Y0110334D01*
X0014636Y0110832D02*
X0021722Y0110832D01*
X0021722Y0111331D02*
X0014636Y0111331D01*
X0014636Y0111829D02*
X0021722Y0111829D01*
X0021722Y0112328D02*
X0014636Y0112328D01*
X0014636Y0112826D02*
X0021722Y0112826D01*
X0021722Y0113325D02*
X0014636Y0113325D01*
X0014636Y0113823D02*
X0021722Y0113823D01*
X0021722Y0114322D02*
X0014636Y0114322D01*
X0014636Y0114820D02*
X0021722Y0114820D01*
X0021722Y0115319D02*
X0014636Y0115319D01*
X0014636Y0115817D02*
X0021722Y0115817D01*
X0021722Y0116316D02*
X0014636Y0116316D01*
X0014636Y0116814D02*
X0021722Y0116814D01*
X0021722Y0117313D02*
X0014636Y0117313D01*
X0014636Y0117811D02*
X0021722Y0117811D01*
X0021722Y0118310D02*
X0014636Y0118310D01*
X0014636Y0118808D02*
X0021722Y0118808D01*
X0021722Y0119307D02*
X0014636Y0119307D01*
X0014636Y0119805D02*
X0021722Y0119805D01*
X0021722Y0120304D02*
X0014636Y0120304D01*
X0014636Y0120802D02*
X0021722Y0120802D01*
X0025659Y0121301D02*
X0014636Y0121301D01*
X0014636Y0121799D02*
X0025659Y0121799D01*
X0025659Y0122298D02*
X0014636Y0122298D01*
X0014636Y0122796D02*
X0025659Y0122796D01*
X0025659Y0123295D02*
X0014636Y0123295D01*
X0014636Y0123793D02*
X0025659Y0123793D01*
X0025659Y0124292D02*
X0014636Y0124292D01*
X0014636Y0124790D02*
X0025659Y0124790D01*
X0025659Y0125289D02*
X0014636Y0125289D01*
X0014636Y0125787D02*
X0025659Y0125787D01*
X0025659Y0126286D02*
X0014636Y0126286D01*
X0014636Y0126784D02*
X0025659Y0126784D01*
X0025659Y0127283D02*
X0014636Y0127283D01*
X0014636Y0127781D02*
X0025659Y0127781D01*
X0025659Y0128280D02*
X0014636Y0128280D01*
X0014636Y0128778D02*
X0025659Y0128778D01*
D13*
X0020148Y0085148D03*
D14*
X0035348Y0077148D03*
X0035348Y0073548D03*
X0042825Y0073576D03*
X0042825Y0076876D03*
X0036132Y0085387D03*
X0036132Y0088687D03*
X0053898Y0096398D03*
X0065148Y0108898D03*
X0067648Y0090148D03*
X0075148Y0082648D03*
X0088898Y0075148D03*
X0095148Y0075148D03*
X0098898Y0073898D03*
X0098898Y0078898D03*
X0108898Y0098898D03*
X0122648Y0112648D03*
X0120148Y0115148D03*
X0117648Y0117648D03*
X0115148Y0120148D03*
X0103898Y0128898D03*
X0111398Y0133898D03*
X0087564Y0121481D03*
X0085231Y0123814D03*
X0081348Y0128248D03*
X0077648Y0135148D03*
X0073898Y0135148D03*
X0070148Y0135148D03*
X0066398Y0135148D03*
X0062648Y0130148D03*
X0086526Y0135069D03*
X0135148Y0101398D03*
X0122648Y0073898D03*
X0122648Y0058898D03*
X0106398Y0037648D03*
X0101398Y0037648D03*
X0078898Y0058898D03*
X0073814Y0065064D03*
X0071481Y0062731D03*
X0060148Y0075148D03*
X0053898Y0065148D03*
X0062648Y0045148D03*
X0070231Y0041314D03*
X0072564Y0038981D03*
X0045148Y0045148D03*
D15*
X0032648Y0120148D03*
M02*
