G75*
%MOIN*%
%OFA0B0*%
%FSLAX25Y25*%
%IPPOS*%
%LPD*%
%AMOC8*
5,1,8,0,0,1.08239X$1,22.5*
%
%ADD10C,0.00000*%
D10*
X0010148Y0005148D02*
X0010148Y0165148D01*
X0148898Y0165148D01*
X0148898Y0005148D01*
X0010148Y0005148D01*
X0012136Y0015148D02*
X0012138Y0015296D01*
X0012144Y0015444D01*
X0012154Y0015592D01*
X0012168Y0015739D01*
X0012186Y0015886D01*
X0012207Y0016032D01*
X0012233Y0016178D01*
X0012263Y0016323D01*
X0012296Y0016467D01*
X0012334Y0016610D01*
X0012375Y0016752D01*
X0012420Y0016893D01*
X0012468Y0017033D01*
X0012521Y0017172D01*
X0012577Y0017309D01*
X0012637Y0017444D01*
X0012700Y0017578D01*
X0012767Y0017710D01*
X0012838Y0017840D01*
X0012912Y0017968D01*
X0012989Y0018094D01*
X0013070Y0018218D01*
X0013154Y0018340D01*
X0013241Y0018459D01*
X0013332Y0018576D01*
X0013426Y0018691D01*
X0013522Y0018803D01*
X0013622Y0018913D01*
X0013724Y0019019D01*
X0013830Y0019123D01*
X0013938Y0019224D01*
X0014049Y0019322D01*
X0014162Y0019418D01*
X0014278Y0019510D01*
X0014396Y0019599D01*
X0014517Y0019684D01*
X0014640Y0019767D01*
X0014765Y0019846D01*
X0014892Y0019922D01*
X0015021Y0019994D01*
X0015152Y0020063D01*
X0015285Y0020128D01*
X0015420Y0020189D01*
X0015556Y0020247D01*
X0015693Y0020302D01*
X0015832Y0020352D01*
X0015973Y0020399D01*
X0016114Y0020442D01*
X0016257Y0020482D01*
X0016401Y0020517D01*
X0016545Y0020549D01*
X0016691Y0020576D01*
X0016837Y0020600D01*
X0016984Y0020620D01*
X0017131Y0020636D01*
X0017278Y0020648D01*
X0017426Y0020656D01*
X0017574Y0020660D01*
X0017722Y0020660D01*
X0017870Y0020656D01*
X0018018Y0020648D01*
X0018165Y0020636D01*
X0018312Y0020620D01*
X0018459Y0020600D01*
X0018605Y0020576D01*
X0018751Y0020549D01*
X0018895Y0020517D01*
X0019039Y0020482D01*
X0019182Y0020442D01*
X0019323Y0020399D01*
X0019464Y0020352D01*
X0019603Y0020302D01*
X0019740Y0020247D01*
X0019876Y0020189D01*
X0020011Y0020128D01*
X0020144Y0020063D01*
X0020275Y0019994D01*
X0020404Y0019922D01*
X0020531Y0019846D01*
X0020656Y0019767D01*
X0020779Y0019684D01*
X0020900Y0019599D01*
X0021018Y0019510D01*
X0021134Y0019418D01*
X0021247Y0019322D01*
X0021358Y0019224D01*
X0021466Y0019123D01*
X0021572Y0019019D01*
X0021674Y0018913D01*
X0021774Y0018803D01*
X0021870Y0018691D01*
X0021964Y0018576D01*
X0022055Y0018459D01*
X0022142Y0018340D01*
X0022226Y0018218D01*
X0022307Y0018094D01*
X0022384Y0017968D01*
X0022458Y0017840D01*
X0022529Y0017710D01*
X0022596Y0017578D01*
X0022659Y0017444D01*
X0022719Y0017309D01*
X0022775Y0017172D01*
X0022828Y0017033D01*
X0022876Y0016893D01*
X0022921Y0016752D01*
X0022962Y0016610D01*
X0023000Y0016467D01*
X0023033Y0016323D01*
X0023063Y0016178D01*
X0023089Y0016032D01*
X0023110Y0015886D01*
X0023128Y0015739D01*
X0023142Y0015592D01*
X0023152Y0015444D01*
X0023158Y0015296D01*
X0023160Y0015148D01*
X0023158Y0015000D01*
X0023152Y0014852D01*
X0023142Y0014704D01*
X0023128Y0014557D01*
X0023110Y0014410D01*
X0023089Y0014264D01*
X0023063Y0014118D01*
X0023033Y0013973D01*
X0023000Y0013829D01*
X0022962Y0013686D01*
X0022921Y0013544D01*
X0022876Y0013403D01*
X0022828Y0013263D01*
X0022775Y0013124D01*
X0022719Y0012987D01*
X0022659Y0012852D01*
X0022596Y0012718D01*
X0022529Y0012586D01*
X0022458Y0012456D01*
X0022384Y0012328D01*
X0022307Y0012202D01*
X0022226Y0012078D01*
X0022142Y0011956D01*
X0022055Y0011837D01*
X0021964Y0011720D01*
X0021870Y0011605D01*
X0021774Y0011493D01*
X0021674Y0011383D01*
X0021572Y0011277D01*
X0021466Y0011173D01*
X0021358Y0011072D01*
X0021247Y0010974D01*
X0021134Y0010878D01*
X0021018Y0010786D01*
X0020900Y0010697D01*
X0020779Y0010612D01*
X0020656Y0010529D01*
X0020531Y0010450D01*
X0020404Y0010374D01*
X0020275Y0010302D01*
X0020144Y0010233D01*
X0020011Y0010168D01*
X0019876Y0010107D01*
X0019740Y0010049D01*
X0019603Y0009994D01*
X0019464Y0009944D01*
X0019323Y0009897D01*
X0019182Y0009854D01*
X0019039Y0009814D01*
X0018895Y0009779D01*
X0018751Y0009747D01*
X0018605Y0009720D01*
X0018459Y0009696D01*
X0018312Y0009676D01*
X0018165Y0009660D01*
X0018018Y0009648D01*
X0017870Y0009640D01*
X0017722Y0009636D01*
X0017574Y0009636D01*
X0017426Y0009640D01*
X0017278Y0009648D01*
X0017131Y0009660D01*
X0016984Y0009676D01*
X0016837Y0009696D01*
X0016691Y0009720D01*
X0016545Y0009747D01*
X0016401Y0009779D01*
X0016257Y0009814D01*
X0016114Y0009854D01*
X0015973Y0009897D01*
X0015832Y0009944D01*
X0015693Y0009994D01*
X0015556Y0010049D01*
X0015420Y0010107D01*
X0015285Y0010168D01*
X0015152Y0010233D01*
X0015021Y0010302D01*
X0014892Y0010374D01*
X0014765Y0010450D01*
X0014640Y0010529D01*
X0014517Y0010612D01*
X0014396Y0010697D01*
X0014278Y0010786D01*
X0014162Y0010878D01*
X0014049Y0010974D01*
X0013938Y0011072D01*
X0013830Y0011173D01*
X0013724Y0011277D01*
X0013622Y0011383D01*
X0013522Y0011493D01*
X0013426Y0011605D01*
X0013332Y0011720D01*
X0013241Y0011837D01*
X0013154Y0011956D01*
X0013070Y0012078D01*
X0012989Y0012202D01*
X0012912Y0012328D01*
X0012838Y0012456D01*
X0012767Y0012586D01*
X0012700Y0012718D01*
X0012637Y0012852D01*
X0012577Y0012987D01*
X0012521Y0013124D01*
X0012468Y0013263D01*
X0012420Y0013403D01*
X0012375Y0013544D01*
X0012334Y0013686D01*
X0012296Y0013829D01*
X0012263Y0013973D01*
X0012233Y0014118D01*
X0012207Y0014264D01*
X0012186Y0014410D01*
X0012168Y0014557D01*
X0012154Y0014704D01*
X0012144Y0014852D01*
X0012138Y0015000D01*
X0012136Y0015148D01*
X0012136Y0155148D02*
X0012138Y0155296D01*
X0012144Y0155444D01*
X0012154Y0155592D01*
X0012168Y0155739D01*
X0012186Y0155886D01*
X0012207Y0156032D01*
X0012233Y0156178D01*
X0012263Y0156323D01*
X0012296Y0156467D01*
X0012334Y0156610D01*
X0012375Y0156752D01*
X0012420Y0156893D01*
X0012468Y0157033D01*
X0012521Y0157172D01*
X0012577Y0157309D01*
X0012637Y0157444D01*
X0012700Y0157578D01*
X0012767Y0157710D01*
X0012838Y0157840D01*
X0012912Y0157968D01*
X0012989Y0158094D01*
X0013070Y0158218D01*
X0013154Y0158340D01*
X0013241Y0158459D01*
X0013332Y0158576D01*
X0013426Y0158691D01*
X0013522Y0158803D01*
X0013622Y0158913D01*
X0013724Y0159019D01*
X0013830Y0159123D01*
X0013938Y0159224D01*
X0014049Y0159322D01*
X0014162Y0159418D01*
X0014278Y0159510D01*
X0014396Y0159599D01*
X0014517Y0159684D01*
X0014640Y0159767D01*
X0014765Y0159846D01*
X0014892Y0159922D01*
X0015021Y0159994D01*
X0015152Y0160063D01*
X0015285Y0160128D01*
X0015420Y0160189D01*
X0015556Y0160247D01*
X0015693Y0160302D01*
X0015832Y0160352D01*
X0015973Y0160399D01*
X0016114Y0160442D01*
X0016257Y0160482D01*
X0016401Y0160517D01*
X0016545Y0160549D01*
X0016691Y0160576D01*
X0016837Y0160600D01*
X0016984Y0160620D01*
X0017131Y0160636D01*
X0017278Y0160648D01*
X0017426Y0160656D01*
X0017574Y0160660D01*
X0017722Y0160660D01*
X0017870Y0160656D01*
X0018018Y0160648D01*
X0018165Y0160636D01*
X0018312Y0160620D01*
X0018459Y0160600D01*
X0018605Y0160576D01*
X0018751Y0160549D01*
X0018895Y0160517D01*
X0019039Y0160482D01*
X0019182Y0160442D01*
X0019323Y0160399D01*
X0019464Y0160352D01*
X0019603Y0160302D01*
X0019740Y0160247D01*
X0019876Y0160189D01*
X0020011Y0160128D01*
X0020144Y0160063D01*
X0020275Y0159994D01*
X0020404Y0159922D01*
X0020531Y0159846D01*
X0020656Y0159767D01*
X0020779Y0159684D01*
X0020900Y0159599D01*
X0021018Y0159510D01*
X0021134Y0159418D01*
X0021247Y0159322D01*
X0021358Y0159224D01*
X0021466Y0159123D01*
X0021572Y0159019D01*
X0021674Y0158913D01*
X0021774Y0158803D01*
X0021870Y0158691D01*
X0021964Y0158576D01*
X0022055Y0158459D01*
X0022142Y0158340D01*
X0022226Y0158218D01*
X0022307Y0158094D01*
X0022384Y0157968D01*
X0022458Y0157840D01*
X0022529Y0157710D01*
X0022596Y0157578D01*
X0022659Y0157444D01*
X0022719Y0157309D01*
X0022775Y0157172D01*
X0022828Y0157033D01*
X0022876Y0156893D01*
X0022921Y0156752D01*
X0022962Y0156610D01*
X0023000Y0156467D01*
X0023033Y0156323D01*
X0023063Y0156178D01*
X0023089Y0156032D01*
X0023110Y0155886D01*
X0023128Y0155739D01*
X0023142Y0155592D01*
X0023152Y0155444D01*
X0023158Y0155296D01*
X0023160Y0155148D01*
X0023158Y0155000D01*
X0023152Y0154852D01*
X0023142Y0154704D01*
X0023128Y0154557D01*
X0023110Y0154410D01*
X0023089Y0154264D01*
X0023063Y0154118D01*
X0023033Y0153973D01*
X0023000Y0153829D01*
X0022962Y0153686D01*
X0022921Y0153544D01*
X0022876Y0153403D01*
X0022828Y0153263D01*
X0022775Y0153124D01*
X0022719Y0152987D01*
X0022659Y0152852D01*
X0022596Y0152718D01*
X0022529Y0152586D01*
X0022458Y0152456D01*
X0022384Y0152328D01*
X0022307Y0152202D01*
X0022226Y0152078D01*
X0022142Y0151956D01*
X0022055Y0151837D01*
X0021964Y0151720D01*
X0021870Y0151605D01*
X0021774Y0151493D01*
X0021674Y0151383D01*
X0021572Y0151277D01*
X0021466Y0151173D01*
X0021358Y0151072D01*
X0021247Y0150974D01*
X0021134Y0150878D01*
X0021018Y0150786D01*
X0020900Y0150697D01*
X0020779Y0150612D01*
X0020656Y0150529D01*
X0020531Y0150450D01*
X0020404Y0150374D01*
X0020275Y0150302D01*
X0020144Y0150233D01*
X0020011Y0150168D01*
X0019876Y0150107D01*
X0019740Y0150049D01*
X0019603Y0149994D01*
X0019464Y0149944D01*
X0019323Y0149897D01*
X0019182Y0149854D01*
X0019039Y0149814D01*
X0018895Y0149779D01*
X0018751Y0149747D01*
X0018605Y0149720D01*
X0018459Y0149696D01*
X0018312Y0149676D01*
X0018165Y0149660D01*
X0018018Y0149648D01*
X0017870Y0149640D01*
X0017722Y0149636D01*
X0017574Y0149636D01*
X0017426Y0149640D01*
X0017278Y0149648D01*
X0017131Y0149660D01*
X0016984Y0149676D01*
X0016837Y0149696D01*
X0016691Y0149720D01*
X0016545Y0149747D01*
X0016401Y0149779D01*
X0016257Y0149814D01*
X0016114Y0149854D01*
X0015973Y0149897D01*
X0015832Y0149944D01*
X0015693Y0149994D01*
X0015556Y0150049D01*
X0015420Y0150107D01*
X0015285Y0150168D01*
X0015152Y0150233D01*
X0015021Y0150302D01*
X0014892Y0150374D01*
X0014765Y0150450D01*
X0014640Y0150529D01*
X0014517Y0150612D01*
X0014396Y0150697D01*
X0014278Y0150786D01*
X0014162Y0150878D01*
X0014049Y0150974D01*
X0013938Y0151072D01*
X0013830Y0151173D01*
X0013724Y0151277D01*
X0013622Y0151383D01*
X0013522Y0151493D01*
X0013426Y0151605D01*
X0013332Y0151720D01*
X0013241Y0151837D01*
X0013154Y0151956D01*
X0013070Y0152078D01*
X0012989Y0152202D01*
X0012912Y0152328D01*
X0012838Y0152456D01*
X0012767Y0152586D01*
X0012700Y0152718D01*
X0012637Y0152852D01*
X0012577Y0152987D01*
X0012521Y0153124D01*
X0012468Y0153263D01*
X0012420Y0153403D01*
X0012375Y0153544D01*
X0012334Y0153686D01*
X0012296Y0153829D01*
X0012263Y0153973D01*
X0012233Y0154118D01*
X0012207Y0154264D01*
X0012186Y0154410D01*
X0012168Y0154557D01*
X0012154Y0154704D01*
X0012144Y0154852D01*
X0012138Y0155000D01*
X0012136Y0155148D01*
X0132136Y0125148D02*
X0132138Y0125296D01*
X0132144Y0125444D01*
X0132154Y0125592D01*
X0132168Y0125739D01*
X0132186Y0125886D01*
X0132207Y0126032D01*
X0132233Y0126178D01*
X0132263Y0126323D01*
X0132296Y0126467D01*
X0132334Y0126610D01*
X0132375Y0126752D01*
X0132420Y0126893D01*
X0132468Y0127033D01*
X0132521Y0127172D01*
X0132577Y0127309D01*
X0132637Y0127444D01*
X0132700Y0127578D01*
X0132767Y0127710D01*
X0132838Y0127840D01*
X0132912Y0127968D01*
X0132989Y0128094D01*
X0133070Y0128218D01*
X0133154Y0128340D01*
X0133241Y0128459D01*
X0133332Y0128576D01*
X0133426Y0128691D01*
X0133522Y0128803D01*
X0133622Y0128913D01*
X0133724Y0129019D01*
X0133830Y0129123D01*
X0133938Y0129224D01*
X0134049Y0129322D01*
X0134162Y0129418D01*
X0134278Y0129510D01*
X0134396Y0129599D01*
X0134517Y0129684D01*
X0134640Y0129767D01*
X0134765Y0129846D01*
X0134892Y0129922D01*
X0135021Y0129994D01*
X0135152Y0130063D01*
X0135285Y0130128D01*
X0135420Y0130189D01*
X0135556Y0130247D01*
X0135693Y0130302D01*
X0135832Y0130352D01*
X0135973Y0130399D01*
X0136114Y0130442D01*
X0136257Y0130482D01*
X0136401Y0130517D01*
X0136545Y0130549D01*
X0136691Y0130576D01*
X0136837Y0130600D01*
X0136984Y0130620D01*
X0137131Y0130636D01*
X0137278Y0130648D01*
X0137426Y0130656D01*
X0137574Y0130660D01*
X0137722Y0130660D01*
X0137870Y0130656D01*
X0138018Y0130648D01*
X0138165Y0130636D01*
X0138312Y0130620D01*
X0138459Y0130600D01*
X0138605Y0130576D01*
X0138751Y0130549D01*
X0138895Y0130517D01*
X0139039Y0130482D01*
X0139182Y0130442D01*
X0139323Y0130399D01*
X0139464Y0130352D01*
X0139603Y0130302D01*
X0139740Y0130247D01*
X0139876Y0130189D01*
X0140011Y0130128D01*
X0140144Y0130063D01*
X0140275Y0129994D01*
X0140404Y0129922D01*
X0140531Y0129846D01*
X0140656Y0129767D01*
X0140779Y0129684D01*
X0140900Y0129599D01*
X0141018Y0129510D01*
X0141134Y0129418D01*
X0141247Y0129322D01*
X0141358Y0129224D01*
X0141466Y0129123D01*
X0141572Y0129019D01*
X0141674Y0128913D01*
X0141774Y0128803D01*
X0141870Y0128691D01*
X0141964Y0128576D01*
X0142055Y0128459D01*
X0142142Y0128340D01*
X0142226Y0128218D01*
X0142307Y0128094D01*
X0142384Y0127968D01*
X0142458Y0127840D01*
X0142529Y0127710D01*
X0142596Y0127578D01*
X0142659Y0127444D01*
X0142719Y0127309D01*
X0142775Y0127172D01*
X0142828Y0127033D01*
X0142876Y0126893D01*
X0142921Y0126752D01*
X0142962Y0126610D01*
X0143000Y0126467D01*
X0143033Y0126323D01*
X0143063Y0126178D01*
X0143089Y0126032D01*
X0143110Y0125886D01*
X0143128Y0125739D01*
X0143142Y0125592D01*
X0143152Y0125444D01*
X0143158Y0125296D01*
X0143160Y0125148D01*
X0143158Y0125000D01*
X0143152Y0124852D01*
X0143142Y0124704D01*
X0143128Y0124557D01*
X0143110Y0124410D01*
X0143089Y0124264D01*
X0143063Y0124118D01*
X0143033Y0123973D01*
X0143000Y0123829D01*
X0142962Y0123686D01*
X0142921Y0123544D01*
X0142876Y0123403D01*
X0142828Y0123263D01*
X0142775Y0123124D01*
X0142719Y0122987D01*
X0142659Y0122852D01*
X0142596Y0122718D01*
X0142529Y0122586D01*
X0142458Y0122456D01*
X0142384Y0122328D01*
X0142307Y0122202D01*
X0142226Y0122078D01*
X0142142Y0121956D01*
X0142055Y0121837D01*
X0141964Y0121720D01*
X0141870Y0121605D01*
X0141774Y0121493D01*
X0141674Y0121383D01*
X0141572Y0121277D01*
X0141466Y0121173D01*
X0141358Y0121072D01*
X0141247Y0120974D01*
X0141134Y0120878D01*
X0141018Y0120786D01*
X0140900Y0120697D01*
X0140779Y0120612D01*
X0140656Y0120529D01*
X0140531Y0120450D01*
X0140404Y0120374D01*
X0140275Y0120302D01*
X0140144Y0120233D01*
X0140011Y0120168D01*
X0139876Y0120107D01*
X0139740Y0120049D01*
X0139603Y0119994D01*
X0139464Y0119944D01*
X0139323Y0119897D01*
X0139182Y0119854D01*
X0139039Y0119814D01*
X0138895Y0119779D01*
X0138751Y0119747D01*
X0138605Y0119720D01*
X0138459Y0119696D01*
X0138312Y0119676D01*
X0138165Y0119660D01*
X0138018Y0119648D01*
X0137870Y0119640D01*
X0137722Y0119636D01*
X0137574Y0119636D01*
X0137426Y0119640D01*
X0137278Y0119648D01*
X0137131Y0119660D01*
X0136984Y0119676D01*
X0136837Y0119696D01*
X0136691Y0119720D01*
X0136545Y0119747D01*
X0136401Y0119779D01*
X0136257Y0119814D01*
X0136114Y0119854D01*
X0135973Y0119897D01*
X0135832Y0119944D01*
X0135693Y0119994D01*
X0135556Y0120049D01*
X0135420Y0120107D01*
X0135285Y0120168D01*
X0135152Y0120233D01*
X0135021Y0120302D01*
X0134892Y0120374D01*
X0134765Y0120450D01*
X0134640Y0120529D01*
X0134517Y0120612D01*
X0134396Y0120697D01*
X0134278Y0120786D01*
X0134162Y0120878D01*
X0134049Y0120974D01*
X0133938Y0121072D01*
X0133830Y0121173D01*
X0133724Y0121277D01*
X0133622Y0121383D01*
X0133522Y0121493D01*
X0133426Y0121605D01*
X0133332Y0121720D01*
X0133241Y0121837D01*
X0133154Y0121956D01*
X0133070Y0122078D01*
X0132989Y0122202D01*
X0132912Y0122328D01*
X0132838Y0122456D01*
X0132767Y0122586D01*
X0132700Y0122718D01*
X0132637Y0122852D01*
X0132577Y0122987D01*
X0132521Y0123124D01*
X0132468Y0123263D01*
X0132420Y0123403D01*
X0132375Y0123544D01*
X0132334Y0123686D01*
X0132296Y0123829D01*
X0132263Y0123973D01*
X0132233Y0124118D01*
X0132207Y0124264D01*
X0132186Y0124410D01*
X0132168Y0124557D01*
X0132154Y0124704D01*
X0132144Y0124852D01*
X0132138Y0125000D01*
X0132136Y0125148D01*
M02*
