G75*
%MOIN*%
%OFA0B0*%
%FSLAX25Y25*%
%IPPOS*%
%LPD*%
%AMOC8*
5,1,8,0,0,1.08239X$1,22.5*
%
%ADD10C,0.11524*%
%ADD11R,0.07587X0.06799*%
%ADD12R,0.08500X0.03100*%
%ADD13R,0.10500X0.05500*%
%ADD14R,0.07598X0.06799*%
%ADD15R,0.03110X0.01386*%
%ADD16R,0.02606X0.01386*%
%ADD17R,0.01386X0.02606*%
%ADD18R,0.02862X0.07980*%
%ADD19C,0.00500*%
%ADD20R,0.05500X0.03000*%
%ADD21C,0.03200*%
%ADD22C,0.04300*%
D10*
X0017648Y0015148D03*
X0137648Y0125148D03*
X0017648Y0155148D03*
D11*
X0053898Y0058159D03*
X0053898Y0047136D03*
D12*
X0105548Y0058898D03*
X0105548Y0063898D03*
X0105548Y0068898D03*
X0105548Y0073898D03*
X0105548Y0078898D03*
X0105548Y0083898D03*
X0105548Y0088898D03*
X0105548Y0093898D03*
X0129748Y0093898D03*
X0129748Y0088898D03*
X0129748Y0083898D03*
X0129748Y0078898D03*
X0129748Y0073898D03*
X0129748Y0068898D03*
X0129748Y0063898D03*
X0129748Y0058898D03*
D13*
X0142048Y0106398D03*
D14*
X0107648Y0104549D03*
X0107648Y0115746D03*
D15*
X0055941Y0079085D03*
D16*
X0055689Y0077510D03*
X0055689Y0075935D03*
X0055689Y0074360D03*
X0055689Y0072785D03*
X0055689Y0071211D03*
X0064606Y0071211D03*
X0064606Y0072785D03*
X0064606Y0074360D03*
X0064606Y0075935D03*
X0064606Y0077510D03*
X0064606Y0079085D03*
D17*
X0064085Y0081322D03*
X0062510Y0081322D03*
X0060935Y0081322D03*
X0059360Y0081322D03*
X0057785Y0081322D03*
X0056211Y0081322D03*
X0056211Y0068973D03*
X0057785Y0068972D03*
X0059360Y0068972D03*
X0060935Y0068972D03*
X0062510Y0068972D03*
X0064085Y0068972D03*
D18*
X0062589Y0029400D03*
X0066526Y0029400D03*
X0070463Y0029400D03*
X0074400Y0029400D03*
X0078337Y0029400D03*
X0082274Y0029400D03*
X0086211Y0029400D03*
X0090148Y0029400D03*
X0094085Y0029400D03*
X0098022Y0029400D03*
X0101959Y0029400D03*
X0105896Y0029400D03*
X0109833Y0029400D03*
X0113770Y0029400D03*
X0117707Y0029400D03*
X0117707Y0140896D03*
X0113770Y0140896D03*
X0109833Y0140896D03*
X0105896Y0140896D03*
X0101959Y0140896D03*
X0098022Y0140896D03*
X0094085Y0140896D03*
X0090148Y0140896D03*
X0086211Y0140896D03*
X0082274Y0140896D03*
X0078337Y0140896D03*
X0074400Y0140896D03*
X0070463Y0140896D03*
X0066526Y0140896D03*
X0062589Y0140896D03*
D19*
X0054321Y0144636D02*
X0054321Y0148573D01*
X0125974Y0148573D01*
X0125974Y0144636D01*
X0134242Y0144636D01*
X0134242Y0155659D01*
X0046053Y0155659D01*
X0046053Y0144636D01*
X0054321Y0144636D01*
X0054321Y0144731D02*
X0046053Y0144731D01*
X0046053Y0145229D02*
X0054321Y0145229D01*
X0054321Y0145728D02*
X0046053Y0145728D01*
X0046053Y0146226D02*
X0054321Y0146226D01*
X0054321Y0146725D02*
X0046053Y0146725D01*
X0046053Y0147223D02*
X0054321Y0147223D01*
X0054321Y0147722D02*
X0046053Y0147722D01*
X0046053Y0148220D02*
X0054321Y0148220D01*
X0046053Y0148719D02*
X0134242Y0148719D01*
X0134242Y0149217D02*
X0046053Y0149217D01*
X0046053Y0149716D02*
X0134242Y0149716D01*
X0134242Y0150214D02*
X0046053Y0150214D01*
X0046053Y0150713D02*
X0134242Y0150713D01*
X0134242Y0151211D02*
X0046053Y0151211D01*
X0046053Y0151710D02*
X0134242Y0151710D01*
X0134242Y0152208D02*
X0046053Y0152208D01*
X0046053Y0152707D02*
X0134242Y0152707D01*
X0134242Y0153205D02*
X0046053Y0153205D01*
X0046053Y0153704D02*
X0134242Y0153704D01*
X0134242Y0154203D02*
X0046053Y0154203D01*
X0046053Y0154701D02*
X0134242Y0154701D01*
X0134242Y0155200D02*
X0046053Y0155200D01*
X0125974Y0148220D02*
X0134242Y0148220D01*
X0134242Y0147722D02*
X0125974Y0147722D01*
X0125974Y0147223D02*
X0134242Y0147223D01*
X0134242Y0146725D02*
X0125974Y0146725D01*
X0125974Y0146226D02*
X0134242Y0146226D01*
X0134242Y0145728D02*
X0125974Y0145728D01*
X0125974Y0145229D02*
X0134242Y0145229D01*
X0134242Y0144731D02*
X0125974Y0144731D01*
X0125974Y0025659D02*
X0134242Y0025659D01*
X0134242Y0014636D01*
X0046053Y0014636D01*
X0046053Y0025659D01*
X0054321Y0025659D01*
X0054321Y0021722D01*
X0125974Y0021722D01*
X0125974Y0025659D01*
X0125974Y0025587D02*
X0134242Y0025587D01*
X0134242Y0025088D02*
X0125974Y0025088D01*
X0125974Y0024590D02*
X0134242Y0024590D01*
X0134242Y0024091D02*
X0125974Y0024091D01*
X0125974Y0023593D02*
X0134242Y0023593D01*
X0134242Y0023094D02*
X0125974Y0023094D01*
X0125974Y0022596D02*
X0134242Y0022596D01*
X0134242Y0022097D02*
X0125974Y0022097D01*
X0134242Y0021599D02*
X0046053Y0021599D01*
X0046053Y0022097D02*
X0054321Y0022097D01*
X0054321Y0022596D02*
X0046053Y0022596D01*
X0046053Y0023094D02*
X0054321Y0023094D01*
X0054321Y0023593D02*
X0046053Y0023593D01*
X0046053Y0024091D02*
X0054321Y0024091D01*
X0054321Y0024590D02*
X0046053Y0024590D01*
X0046053Y0025088D02*
X0054321Y0025088D01*
X0054321Y0025587D02*
X0046053Y0025587D01*
X0046053Y0021100D02*
X0134242Y0021100D01*
X0134242Y0020601D02*
X0046053Y0020601D01*
X0046053Y0020103D02*
X0134242Y0020103D01*
X0134242Y0019604D02*
X0046053Y0019604D01*
X0046053Y0019106D02*
X0134242Y0019106D01*
X0134242Y0018607D02*
X0046053Y0018607D01*
X0046053Y0018109D02*
X0134242Y0018109D01*
X0134242Y0017610D02*
X0046053Y0017610D01*
X0046053Y0017112D02*
X0134242Y0017112D01*
X0134242Y0016613D02*
X0046053Y0016613D01*
X0046053Y0016115D02*
X0134242Y0016115D01*
X0134242Y0015616D02*
X0046053Y0015616D01*
X0046053Y0015118D02*
X0134242Y0015118D01*
D20*
X0090148Y0020148D03*
X0090148Y0150148D03*
D21*
X0086526Y0135069D03*
X0081348Y0128248D03*
X0085231Y0123814D03*
X0087564Y0121481D03*
X0077648Y0135148D03*
X0073898Y0135148D03*
X0070148Y0135148D03*
X0066398Y0135148D03*
X0062648Y0130148D03*
X0065148Y0108898D03*
X0053898Y0096398D03*
X0067648Y0090148D03*
X0075148Y0082648D03*
X0088898Y0075148D03*
X0095148Y0075148D03*
X0098898Y0073898D03*
X0098898Y0078898D03*
X0108898Y0098898D03*
X0122648Y0112648D03*
X0120148Y0115148D03*
X0117648Y0117648D03*
X0115148Y0120148D03*
X0103898Y0128898D03*
X0111398Y0133898D03*
X0135148Y0101398D03*
X0122648Y0073898D03*
X0122648Y0058898D03*
X0106398Y0037648D03*
X0101398Y0037648D03*
X0078898Y0058898D03*
X0073814Y0065064D03*
X0071481Y0062731D03*
X0060148Y0075148D03*
X0053898Y0065148D03*
X0042825Y0073576D03*
X0042825Y0076876D03*
X0035348Y0077148D03*
X0035348Y0073548D03*
X0036132Y0085387D03*
X0036132Y0088687D03*
X0045148Y0045148D03*
X0062648Y0045148D03*
X0070231Y0041314D03*
X0072564Y0038981D03*
D22*
X0032648Y0120148D03*
M02*
